<?xml version="1.0" encoding="UTF-8"?>
<svg version="1.1" xmlns="http://www.w3.org/2000/svg" width="1024" height="303">
<path d="M0 0 C3.05804682 1.45510046 5.71017394 3.17773144 8.49804688 5.10131836 C9.03401489 5.46870621 9.56998291 5.83609406 10.12219238 6.21461487 C11.82355952 7.38195897 13.52035076 8.55574335 15.21679688 9.73022461 C16.91403083 10.8999399 18.61221089 12.06825141 20.31140137 13.23512268 C21.85394096 14.29523461 23.39384293 15.35918144 24.93359375 16.42333984 C27.6856483 18.32286426 27.6856483 18.32286426 30.578125 19.9140625 C31.63676758 20.59650024 31.63676758 20.59650024 32.71679688 21.29272461 C32.71679688 21.95272461 32.71679688 22.61272461 32.71679688 23.29272461 C33.38839844 23.51959961 34.06 23.74647461 34.75195312 23.98022461 C38.55620885 25.66432201 41.76011646 27.90532041 45.15429688 30.29272461 C45.85876953 30.78256836 46.56324219 31.27241211 47.2890625 31.77709961 C52.35668943 35.31032377 57.3852231 38.89785419 62.40136719 42.50366211 C70.40347243 48.24360739 78.52299116 53.83018747 86.71679688 59.29272461 C87.08594036 61.77210426 87.08594036 61.77210426 87.07756042 64.96206665 C87.08374641 66.77102669 87.08374641 66.77102669 87.09005737 68.61653137 C87.07943928 69.95993264 87.06853484 71.30333166 87.05737305 72.64672852 C87.05652718 74.05587241 87.05700112 75.46501764 87.05870056 76.87416077 C87.05956355 80.70667982 87.04188907 84.53891889 87.02097869 88.3713727 C87.00226218 92.37390008 87.00046543 96.37643342 86.99690247 100.3789978 C86.98756718 107.9615519 86.96293342 115.5439767 86.932854 123.12647378 C86.89935605 131.75753481 86.88283559 140.38860192 86.86776769 149.01971173 C86.83638506 166.77747096 86.78135458 184.53505286 86.71679688 202.29272461 C72.19679687 202.29272461 57.67679688 202.29272461 42.71679688 202.29272461 C42.78600342 198.8217627 42.85520996 195.35080078 42.92651367 191.7746582 C43.14191431 180.26805361 43.2525287 168.76174112 43.31007671 157.25337791 C43.34747978 150.27935216 43.41989285 143.30910304 43.57739258 136.33666992 C43.72949735 129.59857109 43.78048622 122.86642504 43.7716465 116.12630081 C43.78446142 113.56410177 43.83036455 111.0018346 43.91086388 108.44086838 C44.71748782 94.97087275 44.71748782 94.97087275 39.87396622 82.87784576 C35.43245743 78.63140089 30.45741994 75.5564367 25.07670021 72.64108658 C21.49530892 70.59481132 18.34898167 68.07478994 15.15429688 65.48022461 C11.59913522 62.62514293 11.59913522 62.62514293 7.71679688 60.29272461 C7.71679688 59.63272461 7.71679688 58.97272461 7.71679688 58.29272461 C6.95367187 58.00397461 6.19054687 57.71522461 5.40429688 57.41772461 C2.71679687 56.29272461 2.71679687 56.29272461 -0.28320312 54.29272461 C-0.28320312 53.63272461 -0.28320312 52.97272461 -0.28320312 52.29272461 C-0.94320312 52.29272461 -1.60320312 52.29272461 -2.28320312 52.29272461 C-2.28320312 52.95272461 -2.28320312 53.61272461 -2.28320312 54.29272461 C-7.69496783 58.29272461 -7.69496783 58.29272461 -10.28320312 58.29272461 C-10.28320312 58.95272461 -10.28320312 59.61272461 -10.28320312 60.29272461 C-12.25093466 61.83616403 -14.22116634 63.2594441 -16.28320312 64.66772461 C-17.56310458 65.56045838 -18.84169728 66.45507073 -20.11914062 67.35131836 C-20.79557617 67.82553223 -21.47201172 68.29974609 -22.16894531 68.78833008 C-25.79755371 71.37025675 -29.35237171 74.04938406 -32.90820312 76.73022461 C-33.58238281 77.2379541 -34.2565625 77.74568359 -34.95117188 78.26879883 C-35.58925781 78.74978027 -36.22734375 79.23076172 -36.88476562 79.72631836 C-37.4793457 80.17346191 -38.07392578 80.62060547 -38.68652344 81.08129883 C-40.00958521 82.08512643 -41.31657802 83.11009305 -42.61914062 84.14038086 C-44.28320313 85.29272461 -44.28320313 85.29272461 -46.28320312 85.29272461 C-46.28320312 118.95272461 -46.28320312 152.61272461 -46.28320312 187.29272461 C-60.47320312 187.29272461 -74.66320312 187.29272461 -89.28320312 187.29272461 C-89.66785933 170.81064154 -89.98059719 154.33242155 -90.16401005 137.84708786 C-90.25145877 130.19158353 -90.37052059 122.53907689 -90.56567383 114.88549805 C-90.73581466 108.209646 -90.8449466 101.53596469 -90.88270754 94.85800481 C-90.90476895 91.32478788 -90.9560575 87.79777643 -91.08061409 84.26656342 C-91.8064753 62.87674603 -91.8064753 62.87674603 -87.61405563 56.92189026 C-83.16453816 52.52409203 -78.02676289 49.67180954 -72.28320312 47.29272461 C-71.27858536 46.87400085 -70.27396759 46.4552771 -69.23890686 46.02386475 C-68.59352463 45.7825885 -67.9481424 45.54131226 -67.28320312 45.29272461 C-67.28320312 44.63272461 -67.28320312 43.97272461 -67.28320312 43.29272461 C-65.33398438 41.88256836 -65.33398438 41.88256836 -62.59570312 40.23022461 C-57.42769396 37.04887871 -52.45279655 33.67449706 -47.5246582 30.13818359 C-43.49745826 27.29272461 -43.49745826 27.29272461 -41.28320312 27.29272461 C-41.28320312 26.63272461 -41.28320312 25.97272461 -41.28320312 25.29272461 C-39.54492187 24.02319336 -39.54492187 24.02319336 -36.97070312 22.48022461 C-30.45359881 18.46969887 -24.18672201 14.13049505 -17.92260742 9.73681641 C-17.13668213 9.1919458 -16.35075684 8.6470752 -15.54101562 8.08569336 C-14.84121582 7.59609131 -14.14141602 7.10648926 -13.42041016 6.60205078 C-11.11862124 5.19189611 -8.81138952 4.22691021 -6.28320312 3.29272461 C-6.28320312 2.63272461 -6.28320312 1.97272461 -6.28320312 1.29272461 C-3.8432971 -0.33387941 -2.86637039 -0.88792504 0 0 Z " fill="#BC9547" transform="translate(89.283203125,0.707275390625)"/>
<path d="M0 0 C0.07020058 19.4979524 0.1230422 38.99587902 0.15543652 58.49393177 C0.17088012 67.54799954 0.19192152 76.60198861 0.22631836 85.65600586 C0.25629767 93.55102124 0.27559321 101.4459796 0.28226548 109.34105033 C0.28616334 113.51823374 0.29527111 117.69525407 0.31719017 121.87238503 C0.33769041 125.81138272 0.34380673 129.75015156 0.33932304 133.68919754 C0.34014223 135.12782857 0.34602683 136.56646798 0.35761642 138.00505257 C0.454474 150.65807453 -1.06103053 164.25817456 -9.890625 174.109375 C-19.36819463 182.86346603 -33.46427335 183.45589963 -45.89453125 183.1875 C-56.74065417 182.53263975 -67.02156341 181.75557456 -75.75 174.8125 C-86.3281909 161.58976137 -87 146.5167667 -87 130 C-72.81 130 -58.62 130 -44 130 C-43.34 135.94 -42.68 141.88 -42 148 C-41.34 148 -40.68 148 -40 148 C-40.01300974 147.05523269 -40.01300974 147.05523269 -40.02628231 146.09137917 C-40.23258168 130.73248174 -40.35525671 115.37550024 -40.38603115 100.01534462 C-40.40290959 92.58689479 -40.44759413 85.16059572 -40.55883789 77.73291016 C-40.65578332 71.25512559 -40.6994383 64.77949064 -40.68036038 58.30097139 C-40.6720932 54.87265574 -40.68964477 51.44904921 -40.77114677 48.021595 C-41.19447614 27.14584367 -41.19447614 27.14584367 -37.52153397 21.88057709 C-33.54840845 18.04612631 -29.08661306 16.00738265 -24 14 C-22.44614144 13.16821855 -20.89989537 12.32125954 -19.375 11.4375 C-18.36373047 10.90382813 -18.36373047 10.90382813 -17.33203125 10.359375 C-13.50677149 8.12957534 -9.92909886 5.53336591 -6.33935547 2.94506836 C-2.20664882 0 -2.20664882 0 0 0 Z " fill="#026325" transform="translate(87,61)"/>
<path d="M0 0 C3.47814917 1.39125967 6.05360495 2.52152669 9.1171875 4.46875 C9.890625 4.95859375 10.6640625 5.4484375 11.4609375 5.953125 C12.25757812 6.46359375 13.05421875 6.9740625 13.875 7.5 C14.63296875 7.97953125 15.3909375 8.4590625 16.171875 8.953125 C17.78083983 9.97653214 19.37090022 11.03019133 20.94197083 12.11087036 C23.28457987 13.5580417 25.25082859 14.54640212 27.76152039 15.55978394 C32.29691098 17.61050632 36.10728524 19.85684772 39 24 C41.60691732 32.16144548 40.79604614 41.19706932 40.52090907 49.64928865 C40.42651623 53.04140733 40.41828157 56.43376658 40.40052795 59.82699585 C40.35407902 66.23881367 40.23125476 72.64675111 40.08028561 79.056867 C39.91205659 86.35991556 39.83001411 93.66315922 39.75485408 100.96766591 C39.59846471 115.98059867 39.33499662 130.98990963 39 146 C39.59912704 145.99777939 40.19825409 145.99555878 40.8155365 145.99327087 C47.02797858 145.97121835 53.24040962 145.95609354 59.45288086 145.94506836 C61.77417451 145.94002667 64.09546497 145.93319349 66.41674805 145.92456055 C69.74528795 145.91248775 73.07378602 145.90677021 76.40234375 145.90234375 C77.44712387 145.89718246 78.49190399 145.89202118 79.56834412 145.88670349 C80.52926468 145.88662796 81.49018524 145.88655243 82.48022461 145.88647461 C83.33071884 145.884254 84.18121307 145.88203339 85.05747986 145.87974548 C87 146 87 146 88 147 C88.1001491 149.19477691 88.13081219 151.392784 88.1328125 153.58984375 C88.13376923 154.2495668 88.13472595 154.90928986 88.13571167 155.58900452 C88.13639336 156.98699031 88.13453986 158.38497924 88.13037109 159.78295898 C88.12503106 161.92503982 88.13031199 164.06691017 88.13671875 166.20898438 C88.1360578 167.56510463 88.13477629 168.92122476 88.1328125 170.27734375 C88.13168457 171.51734131 88.13055664 172.75733887 88.12939453 174.03491211 C88 177 88 177 87 179 C58.29 179 29.58 179 0 179 C0 119.93 0 60.86 0 0 Z " fill="#026325" transform="translate(89,61)"/>
<path d="M0 0 C5.6193002 -0.0249559 11.23856722 -0.04297966 16.85791016 -0.05493164 C18.7644914 -0.05992101 20.67106891 -0.06671487 22.57763672 -0.07543945 C55.54075939 -0.22236475 55.54075939 -0.22236475 64.9375 7.375 C68.75651672 12.23556673 69.62006158 16.90272777 69 23 C67.1768777 29.9988319 63.97830891 33.34355486 57.828125 37.00390625 C57.22484375 37.33261719 56.6215625 37.66132812 56 38 C56.51949219 38.23074219 57.03898437 38.46148437 57.57421875 38.69921875 C64.51054837 41.94301061 69.0393729 45.85801072 72.26953125 52.8984375 C74.10599097 58.18194193 73.40698632 62.54254093 71.5 67.625 C68.46609737 73.84289233 63.47405914 76.7187908 57.5 79.8125 C50.20485205 82.28763948 42.77714902 82.13842057 35.15625 82.09765625 C34.14655151 82.0962413 33.13685303 82.09482635 32.09655762 82.09336853 C28.89767389 82.08780781 25.69886228 82.0752627 22.5 82.0625 C20.32031352 82.05747992 18.14062593 82.0529179 15.9609375 82.04882812 C10.64060074 82.03785128 5.32030552 82.02115268 0 82 C0 79.6875 0 79.6875 1 77 C3.64 76.01 6.28 75.02 9 74 C9 52.22 9 30.44 9 8 C6.03 7.01 3.06 6.02 0 5 C0 3.35 0 1.7 0 0 Z M31 8 C30.72123233 10.91487922 30.72123233 10.91487922 30.8046875 14.3203125 C30.81113281 15.57714844 30.81757813 16.83398438 30.82421875 18.12890625 C30.84097656 19.44761719 30.85773438 20.76632813 30.875 22.125 C30.88503017 23.46483721 30.89415596 24.80468152 30.90234375 26.14453125 C30.92597925 29.42986573 30.95892766 32.71484465 31 36 C32.41750563 35.88490339 33.83401169 35.75746342 35.25 35.625 C36.03890625 35.55539063 36.8278125 35.48578125 37.640625 35.4140625 C40.13537276 34.97624253 41.85138104 34.33186532 44 33 C47.50997005 27.67004547 48.72430406 21.78912787 47.52734375 15.52734375 C46.54008795 12.20951686 45.51217026 9.62598588 43.3125 6.9375 C39.15103109 5.25041801 34.34576981 4.65423019 31 8 Z M31 42 C30.95054614 46.35992871 30.91425512 50.71970862 30.89013672 55.07983398 C30.88008179 56.56293583 30.86643596 58.04601788 30.84912109 59.52905273 C30.82484994 61.66134531 30.81351201 63.79337569 30.8046875 65.92578125 C30.79421387 67.20880127 30.78374023 68.49182129 30.77294922 69.8137207 C30.7473944 73.15642744 30.7473944 73.15642744 33 76 C37.74854629 76.93290024 41.8567012 76.69074302 46 74.1875 C50.83835676 68.89554729 51.25534931 64.10840389 51.15234375 57.20703125 C50.77094453 51.68163232 48.6919892 48.02762458 45 44 C41.57905758 41.71937172 40.31812778 41.78074993 36.3125 41.875 C35.31863281 41.89304688 34.32476562 41.91109375 33.30078125 41.9296875 C32.54152344 41.95289063 31.78226562 41.97609375 31 42 Z " fill="#026325" transform="translate(354,66)"/>
<path d="M0 0 C22.77 0 45.54 0 69 0 C69 8.58 69 17.16 69 26 C67.68 26 66.36 26 65 26 C64.76925781 25.26394531 64.53851562 24.52789062 64.30078125 23.76953125 C61.89182511 16.56170598 59.88125505 11.98643115 52.85546875 8.390625 C48.75147881 6.68434511 45.01747744 6.62057157 40.625 6.75 C39.90183594 6.75515625 39.17867187 6.7603125 38.43359375 6.765625 C34.92311263 6.51922031 34.92311263 6.51922031 32 8 C31.84141158 10.14386657 31.74870702 12.29266838 31.68359375 14.44140625 C31.64169922 15.74658203 31.59980469 17.05175781 31.55664062 18.39648438 C31.51682392 19.7851533 31.47711175 21.17382522 31.4375 22.5625 C31.39432011 23.95509183 31.350706 25.34767028 31.30664062 26.74023438 C31.20014124 30.16004801 31.09813077 33.57993763 31 37 C32.26070312 36.85046875 33.52140625 36.7009375 34.8203125 36.546875 C35.52945801 36.46276367 36.23860352 36.37865234 36.96923828 36.29199219 C39.63168671 35.9091732 41.67224292 35.36926887 44 34 C45.25783601 31.86430119 45.25783601 31.86430119 46 29 C46.53865155 27.3948184 47.08051304 25.7907116 47.625 24.1875 C48.08480512 22.7921508 48.54363464 21.396478 49 20 C50.32 20 51.64 20 53 20 C53 33.86 53 47.72 53 62 C51.35 61.67 49.7 61.34 48 61 C47.89042969 60.40832031 47.78085937 59.81664062 47.66796875 59.20703125 C46.44701349 53.12210786 45.40311441 48.60207627 40 45 C37.72461677 44.33386665 37.72461677 44.33386665 35.3125 43.875 C34.50425781 43.70742187 33.69601562 43.53984375 32.86328125 43.3671875 C31.94095703 43.18542969 31.94095703 43.18542969 31 43 C31.11815307 47.23603463 31.24239432 51.47183326 31.37231445 55.70751953 C31.41566231 57.1488762 31.45733752 58.59028418 31.49731445 60.03173828 C31.55502088 62.10204541 31.61871371 64.17209432 31.68359375 66.2421875 C31.72025146 67.4885498 31.75690918 68.73491211 31.79467773 70.01904297 C31.80289479 72.92636942 31.80289479 72.92636942 33 75 C45.01413771 75.53068584 54.08197835 75.2655546 63.42578125 66.79296875 C66.25593765 63.56953999 68.14569295 59.84533719 70 56 C71.65 56 73.3 56 75 56 C73.91238519 64.70091851 72.44155405 73.3506757 71 82 C47.57 82 24.14 82 0 82 C0.33 80.35 0.66 78.7 1 77 C2.134375 76.71125 3.26875 76.4225 4.4375 76.125 C5.613125 75.75375 6.78875 75.3825 8 75 C9.37942835 72.2411433 9.12721397 70.01714365 9.12939453 66.9296875 C9.13254669 65.65496582 9.13569885 64.38024414 9.13894653 63.06689453 C9.1371567 61.669596 9.13510573 60.27229779 9.1328125 58.875 C9.13348585 57.44775374 9.13445615 56.02050759 9.13571167 54.59326172 C9.13718715 51.60057484 9.13503888 48.60791779 9.13037109 45.61523438 C9.12467388 41.77490871 9.12795369 37.93465293 9.13394356 34.09432983 C9.13755319 31.14672314 9.13640873 28.19913307 9.13381577 25.25152588 C9.13314761 23.83530672 9.13397104 22.41908606 9.13629532 21.00286865 C9.13882837 19.02535022 9.13428457 17.04782651 9.12939453 15.0703125 C9.12859894 13.94383301 9.12780334 12.81735352 9.12698364 11.65673828 C9.18045513 9.02424226 9.18045513 9.02424226 8 7 C6.11235097 6.31527335 6.11235097 6.31527335 3.9375 5.875 C3.20402344 5.70742187 2.47054687 5.53984375 1.71484375 5.3671875 C1.14894531 5.24601562 0.58304688 5.12484375 0 5 C0 3.35 0 1.7 0 0 Z " fill="#026325" transform="translate(557,66)"/>
<path d="M0 0 C23.1 0 46.2 0 70 0 C70 8.58 70 17.16 70 26 C68.35 26 66.7 26 65 26 C64.5196682 24.41701974 64.04078388 22.83360022 63.5625 21.25 C63.29566406 20.36828125 63.02882813 19.4865625 62.75390625 18.578125 C62.11531506 16.39434165 61.53224167 14.21164502 61 12 C60.34 12 59.68 12 59 12 C59 11.34 59 10.68 59 10 C50.34796755 6.50590997 42.15244471 6.69340446 33 7 C31.60439955 9.79120091 31.78191712 12.20205692 31.68359375 15.3203125 C31.64169922 16.57714844 31.59980469 17.83398438 31.55664062 19.12890625 C31.51732422 20.44761719 31.47800781 21.76632813 31.4375 23.125 C31.39430488 24.46485751 31.35069027 25.80470156 31.30664062 27.14453125 C31.20029019 30.42957815 31.09826192 33.71470281 31 37 C32.60643001 36.70174633 34.21168102 36.39713766 35.81640625 36.08984375 C36.71045166 35.920896 37.60449707 35.75194824 38.52563477 35.57788086 C42.0925768 34.74483184 43.68348793 33.87809076 46 31 C47.28253635 27.38700126 48.20515168 23.74806525 49 20 C50.65 20.33 52.3 20.66 54 21 C54 34.2 54 47.4 54 61 C51.525 61.495 51.525 61.495 49 62 C48.85304688 61.19175781 48.70609375 60.38351563 48.5546875 59.55078125 C47.29421926 52.55369311 47.29421926 52.55369311 43.375 46.875 C40.42113989 45.23396661 38.51423886 44.54664661 35.2890625 43.8828125 C34.4842041 43.71410645 33.6793457 43.54540039 32.85009766 43.37158203 C32.23956543 43.24895996 31.6290332 43.12633789 31 43 C31.09346313 47.23623542 31.19953913 51.47190851 31.31738281 55.70751953 C31.35569674 57.1488374 31.39054543 58.59025168 31.421875 60.03173828 C31.46747446 62.10223886 31.52547444 64.17207433 31.5859375 66.2421875 C31.63306885 68.11173096 31.63306885 68.11173096 31.68115234 70.01904297 C31.69682309 73.11541776 31.69682309 73.11541776 34 75 C43.35572746 76.03831087 52.27431327 75.98429759 60 70 C63.74876815 66.44413588 67.06378406 62.84649792 69.41015625 58.21875 C69.93480469 57.4865625 70.45945312 56.754375 71 56 C73.59936523 55.86132812 73.59936523 55.86132812 76 56 C75.35795894 59.77148928 74.71071825 63.54206791 74.0625 67.3125 C73.88009766 68.38435547 73.69769531 69.45621094 73.50976562 70.56054688 C73.24389648 72.10258789 73.24389648 72.10258789 72.97265625 73.67578125 C72.72914429 75.0975769 72.72914429 75.0975769 72.48071289 76.5480957 C72 79 72 79 71 82 C47.57 82 24.14 82 0 82 C0.33 80.35 0.66 78.7 1 77 C2.8125 75.9609375 2.8125 75.9609375 5 75.375 C7.15640378 74.83475519 7.15640378 74.83475519 9 74 C10.05880919 70.82357244 10.13311616 68.55221881 10.14526367 65.21508789 C10.15164352 64.02698013 10.15802338 62.83887238 10.16459656 61.61476135 C10.16570938 60.33036667 10.1668222 59.04597198 10.16796875 57.72265625 C10.17129715 56.40462509 10.17462555 55.08659393 10.17805481 53.72862244 C10.18404089 50.93862082 10.18589523 48.14865016 10.18530273 45.35864258 C10.1852011 41.7864047 10.19885707 38.21436551 10.21607494 34.64217472 C10.22987702 31.23149881 10.22928386 27.82085974 10.23046875 24.41015625 C10.23765427 23.1277858 10.24483978 21.84541534 10.25224304 20.52418518 C10.24916641 19.33292526 10.24608978 18.14166534 10.24291992 16.91430664 C10.24505745 15.3423629 10.24505745 15.3423629 10.24723816 13.73866272 C9.99627036 10.95868674 9.52589699 9.31989627 8 7 C6.06018382 6.09390008 6.06018382 6.09390008 3.875 5.75 C2.59625 5.5025 1.3175 5.255 0 5 C0 3.35 0 1.7 0 0 Z " fill="#026325" transform="translate(635,66)"/>
<path d="M0 0 C8.97920777 -0.02312566 17.95840537 -0.04091623 26.93763638 -0.05181217 C31.10662828 -0.05704051 35.27559987 -0.06413726 39.44458008 -0.07543945 C43.46457686 -0.08627008 47.48455405 -0.09227721 51.50456429 -0.09487724 C53.04162975 -0.09673118 54.57869409 -0.10035119 56.11575127 -0.10573006 C58.26135487 -0.11294284 60.40687655 -0.11399084 62.55249023 -0.11352539 C63.77604721 -0.115746 64.99960419 -0.11796661 66.26023865 -0.12025452 C69 0 69 0 70 1 C70.08737645 2.85369611 70.10698153 4.71067541 70.09765625 6.56640625 C70.09282227 8.2534668 70.09282227 8.2534668 70.08789062 9.97460938 C70.07532227 11.75061523 70.07532227 11.75061523 70.0625 13.5625 C70.05798828 14.75037109 70.05347656 15.93824219 70.04882812 17.16210938 C70.03699675 20.10812226 70.02051287 23.05403681 70 26 C68.35 26 66.7 26 65 26 C64.84144531 25.34773438 64.68289063 24.69546875 64.51953125 24.0234375 C62.95063321 18.14657079 61.53683819 14.13356369 57 10 C49.54980782 5.78291009 41.31110168 6.72767021 33 7 C31.60439955 9.79120091 31.78191712 12.20205692 31.68359375 15.3203125 C31.64169922 16.57714844 31.59980469 17.83398438 31.55664062 19.12890625 C31.51732422 20.44761719 31.47800781 21.76632813 31.4375 23.125 C31.39430488 24.46485751 31.35069027 25.80470156 31.30664062 27.14453125 C31.20029019 30.42957815 31.09826192 33.71470281 31 37 C32.60699936 36.71688801 34.21213369 36.42317594 35.81640625 36.125 C36.71045166 35.96257812 37.60449707 35.80015625 38.52563477 35.6328125 C42.31902157 34.66266365 43.79385745 33.20893462 46 30 C47.23718667 26.7159232 48.18516056 23.41172612 49 20 C50.32 20 51.64 20 53 20 C53 33.86 53 47.72 53 62 C51.68 62 50.36 62 49 62 C48.84144531 61.26394531 48.68289063 60.52789062 48.51953125 59.76953125 C46.61238219 51.79239148 46.61238219 51.79239148 41 46 C37.72170218 44.66191926 34.42549848 43.85453295 31 43 C31.09361965 47.07549941 31.19973161 51.15046336 31.31738281 55.2253418 C31.3556435 56.61131907 31.39050156 57.99739465 31.421875 59.38354492 C31.46758699 61.3770164 31.52658925 63.37016914 31.5859375 65.36328125 C31.63306885 67.16212769 31.63306885 67.16212769 31.68115234 68.99731445 C31.78429494 72.17882706 31.78429494 72.17882706 34 75 C36.60824178 75.36564137 38.88921867 75.52202438 41.5 75.5 C42.21961914 75.49790527 42.93923828 75.49581055 43.68066406 75.49365234 C50.06217818 75.30629727 54.6336675 73.43195683 60 70 C60.70640625 69.69835937 61.4128125 69.39671875 62.140625 69.0859375 C64.50166639 67.70700997 64.9530999 66.49435328 66 64 C66.76721897 62.56994559 67.55922613 61.15292322 68.375 59.75 C68.77460937 59.04359375 69.17421875 58.3371875 69.5859375 57.609375 C70.28589844 56.81273438 70.28589844 56.81273438 71 56 C72.32 56 73.64 56 75 56 C74.38200506 64.86503084 72.65442413 73.17640466 71 82 C47.57 82 24.14 82 0 82 C0.33 80.35 0.66 78.7 1 77 C2.8125 75.92578125 2.8125 75.92578125 5 75.3125 C7.14126234 74.71833374 7.14126234 74.71833374 9 74 C10.35444379 71.29111241 10.13463772 69.16192501 10.14526367 66.12915039 C10.15164352 64.89769791 10.15802338 63.66624542 10.16459656 62.3974762 C10.16612517 61.04753661 10.16723917 59.6975965 10.16796875 58.34765625 C10.17118104 56.96764592 10.1745451 55.58763594 10.17805481 54.20762634 C10.18404684 51.3132956 10.18589463 48.41899472 10.18530273 45.5246582 C10.18520109 41.81441271 10.19885494 38.1043585 10.21607494 34.39415836 C10.22718885 31.54344298 10.22922213 28.69277394 10.22869301 25.84203911 C10.22987398 24.47408832 10.23430235 23.10613636 10.24202538 21.73820686 C10.25181265 19.82557764 10.24768623 17.91289247 10.24291992 16.00024414 C10.24505745 14.3671505 10.24505745 14.3671505 10.24723816 12.70106506 C10.19598162 9.77771268 10.19598162 9.77771268 8 7 C6.04614933 6.21011855 6.04614933 6.21011855 3.875 5.8125 C1.956875 5.4103125 1.956875 5.4103125 0 5 C0 3.35 0 1.7 0 0 Z " fill="#026325" transform="translate(949,66)"/>
<path d="M0 0 C1.80868813 0.00333092 1.80868813 0.00333092 3.65391541 0.00672913 C4.64899864 0.00651009 4.64899864 0.00651009 5.66418457 0.00628662 C7.86644207 0.00698571 10.06861596 0.01477787 12.27085876 0.02259827 C13.79400588 0.02446246 15.31715359 0.02588636 16.84030151 0.02688599 C20.85657903 0.03071105 24.87282059 0.04054124 28.88908386 0.05158997 C32.98443617 0.06180433 37.07979427 0.06638366 41.17515564 0.07142639 C49.21618963 0.08216352 57.25718746 0.09976022 65.29820251 0.12025452 C65.29820251 8.70025452 65.29820251 17.28025452 65.29820251 26.12025452 C63.64820251 25.79025452 61.99820251 25.46025452 60.29820251 25.12025452 C60.13964783 24.45638733 59.98109314 23.79252014 59.81773376 23.10853577 C58.33652021 17.50283805 57.10433366 13.72485288 52.29820251 10.12025452 C46.7797288 7.25369477 42.51722599 6.72864093 36.36070251 6.93275452 C33.70007751 6.99462952 31.03945251 7.05650452 28.29820251 7.12025452 C28.29820251 17.02025452 28.29820251 26.92025452 28.29820251 37.12025452 C36.62801337 35.99776836 36.62801337 35.99776836 39.67320251 33.12025452 C41.92048111 28.97143249 43.13044019 24.67629693 44.29820251 20.12025452 C45.94820251 20.12025452 47.59820251 20.12025452 49.29820251 20.12025452 C49.29820251 33.65025452 49.29820251 47.18025452 49.29820251 61.12025452 C47.31820251 61.61525452 47.31820251 61.61525452 45.29820251 62.12025452 C45.1164447 61.52857483 44.93468689 60.93689514 44.74742126 60.32728577 C43.33249262 55.87933061 41.81839893 52.08056317 39.29820251 48.12025452 C39.29820251 47.46025452 39.29820251 46.80025452 39.29820251 46.12025452 C33.85320251 44.63525452 33.85320251 44.63525452 28.29820251 43.12025452 C28.62820251 53.35025452 28.95820251 63.58025452 29.29820251 74.12025452 C32.26820251 75.11025452 35.23820251 76.10025452 38.29820251 77.12025452 C39.28820251 77.61525452 39.28820251 77.61525452 40.29820251 78.12025452 C40.29820251 79.44025452 40.29820251 80.76025452 40.29820251 82.12025452 C26.10820251 82.12025452 11.91820251 82.12025452 -2.70179749 82.12025452 C-3.03179749 80.80025452 -3.36179749 79.48025452 -3.70179749 78.12025452 C1.92320251 76.12025452 1.92320251 76.12025452 5.29820251 76.12025452 C6.3937611 72.83357876 6.42514181 70.41248836 6.42759705 66.95228577 C6.43074921 65.68086731 6.43390137 64.40944885 6.43714905 63.09950256 C6.43535915 61.7105862 6.43330817 60.32167014 6.43101501 58.93275452 C6.43168864 57.50933312 6.43265916 56.08591184 6.43391418 54.66249084 C6.43538838 51.67997644 6.43324554 48.697492 6.42857361 45.71498108 C6.42287648 41.89159765 6.42615697 38.06828442 6.43214607 34.24490356 C6.43575919 31.3058367 6.43460964 28.36678648 6.43201828 25.42771912 C6.43135109 24.01790865 6.43217018 22.60809667 6.43449783 21.19828796 C6.4370366 19.22826669 6.4324812 17.25824012 6.42759705 15.28822327 C6.42680145 14.16698059 6.42600586 13.04573792 6.42518616 11.89051819 C6.42022808 9.03223814 6.42022808 9.03223814 5.29820251 6.12025452 C2.65820251 5.79025452 0.01820251 5.46025452 -2.70179749 5.12025452 C-3.26429749 3.18275452 -3.26429749 3.18275452 -3.70179749 1.12025452 C-2.70179749 0.12025452 -2.70179749 0.12025452 0 0 Z " fill="#026325" transform="translate(880.7017974853516,65.87974548339844)"/>
<path d="M0 0 C13.86 0 27.72 0 42 0 C42 1.65 42 3.3 42 5 C37.545 5.495 37.545 5.495 33 6 C31.9796294 9.06111181 31.8614363 11.17952446 31.83886719 14.38598633 C31.82925964 15.48755569 31.8196521 16.58912506 31.80975342 17.72407532 C31.80550354 18.91470078 31.80125366 20.10532623 31.796875 21.33203125 C31.78832489 23.1687867 31.78832489 23.1687867 31.77960205 25.04264832 C31.77014887 27.63592667 31.76361681 30.22921705 31.75976562 32.82250977 C31.75006441 36.7861838 31.71904478 40.74933843 31.6875 44.71289062 C31.68096951 47.23176775 31.67571922 49.75064859 31.671875 52.26953125 C31.6595282 53.45408401 31.6471814 54.63863678 31.63446045 55.85908508 C31.65380742 63.02145851 32.10486602 67.84941302 37.125 73.3125 C42.21000086 76.29717442 47.51909429 76.5016809 53.25 75.375 C58.54524181 73.43341134 60.90036925 70.84580876 63.75 66.0625 C66.28994928 59.83962427 66.15992795 53.58198166 66.16796875 46.96484375 C66.17129715 46.00856583 66.17462555 45.0522879 66.17805481 44.06703186 C66.18310138 42.0524239 66.18546384 40.03780764 66.18530273 38.02319336 C66.18749512 34.9443593 66.20569106 31.86588042 66.22460938 28.78710938 C66.2275426 26.82552205 66.22952787 24.86393304 66.23046875 22.90234375 C66.24124702 21.52561745 66.24124702 21.52561745 66.25224304 20.12107849 C66.24438928 13.82377436 66.24438928 13.82377436 64 8 C61.8617009 6.555806 61.8617009 6.555806 59.375 5.6875 C58.55773437 5.36136719 57.74046875 5.03523438 56.8984375 4.69921875 C56.27195312 4.46847656 55.64546875 4.23773438 55 4 C55.33 2.68 55.66 1.36 56 0 C64.91 0 73.82 0 83 0 C83 1.65 83 3.3 83 5 C80.36 5.66 77.72 6.32 75 7 C74.21930235 10.45751046 73.87207086 13.65646583 73.8581543 17.19824219 C73.85111984 18.20989441 73.84408539 19.22154663 73.83683777 20.26385498 C73.83059135 21.88894989 73.83059135 21.88894989 73.82421875 23.546875 C73.80101836 25.85938408 73.77690094 28.17188411 73.75195312 30.484375 C73.71688324 34.11594696 73.68751041 37.74718573 73.67407227 41.37890625 C73.65853517 44.89363574 73.61828831 48.40740218 73.57421875 51.921875 C73.57612717 52.99717468 73.57803558 54.07247437 73.58000183 55.18035889 C73.44993704 63.25875264 71.44573318 68.86106692 67.375 75.75 C59.13005884 83.56099689 49.23925471 84.25475661 38.40625 84.15234375 C29.88577025 83.77126725 21.58192557 81.13926623 15.6875 74.75 C9.63572484 67.74450669 9.55950968 59.49798811 9.55859375 50.73046875 C9.54538589 49.57251297 9.53217804 48.41455719 9.51856995 47.22151184 C9.47785101 43.54348274 9.45603909 39.86570288 9.4375 36.1875 C9.41372005 32.49151904 9.38566138 28.7957729 9.34571838 25.09992981 C9.32133912 22.8051626 9.30649872 20.51027032 9.30210876 18.21537781 C9.29192215 17.18032608 9.28173553 16.14527435 9.27124023 15.07885742 C9.26696518 14.16810959 9.26269012 13.25736176 9.25828552 12.3190155 C9.14920064 9.72634575 9.14920064 9.72634575 7 7 C3.44327821 5.7811879 3.44327821 5.7811879 0 5 C0 3.35 0 1.7 0 0 Z " fill="#026325" transform="translate(269,66)"/>
<path d="M0 0 C13.86 0 27.72 0 42 0 C42.495 1.98 42.495 1.98 43 4 C42.04287109 4.39832031 42.04287109 4.39832031 41.06640625 4.8046875 C40.24011719 5.15789062 39.41382813 5.51109375 38.5625 5.875 C37.73878906 6.22304687 36.91507812 6.57109375 36.06640625 6.9296875 C33.84253285 7.8244937 33.84253285 7.8244937 33 10 C32.89024036 11.89231545 32.84355266 13.78841939 32.82641602 15.68383789 C32.81292618 16.87590347 32.79943634 18.06796906 32.78553772 19.29615784 C32.77509933 20.59190231 32.76466095 21.88764679 32.75390625 23.22265625 C32.73839786 24.56588035 32.72218783 25.90909652 32.70530701 27.25230408 C32.63465133 32.95774024 32.57475914 38.66325666 32.52319336 44.36889648 C32.4911656 47.85968236 32.44982055 51.35026223 32.40299797 54.84087944 C32.37942731 56.8042532 32.36629996 58.76774351 32.35340881 60.73121643 C32.2064172 71.45511109 31.71334474 81.43700644 23.625 89.3125 C15.96667754 94.2357073 6.78189485 93.86929643 -2 93 C-7.43205963 91.69286173 -11.1688111 88.70876816 -14.1484375 83.99609375 C-15.72552492 80.29934296 -15.8900031 76.90288243 -15 73 C-13.0125694 69.9567469 -11.67958873 68.37926197 -8.0625 67.5625 C-4.47839497 67.34528151 -2.26252989 67.87420443 1 69.4375 C3.55617402 72.71259796 3.52938343 74.75018605 3.30859375 78.8046875 C2.93933748 81.43154859 2.21632639 83.64336762 1 86 C2.04490735 87.2678956 2.04490735 87.2678956 4.375 87.125 C7.11093048 87.11343738 7.11093048 87.11343738 10 86 C10 59.93 10 33.86 10 7 C6.7 6.34 3.4 5.68 0 5 C0 3.35 0 1.7 0 0 Z " fill="#026325" transform="translate(224,66)"/>
<path d="M0 0 C13.86 0 27.72 0 42 0 C42 1.65 42 3.3 42 5 C41.04287109 5.30744141 41.04287109 5.30744141 40.06640625 5.62109375 C39.24011719 5.89050781 38.41382813 6.15992187 37.5625 6.4375 C36.73878906 6.70433594 35.91507813 6.97117187 35.06640625 7.24609375 C33.03780412 7.82155494 33.03780412 7.82155494 32 9 C31.90064852 11.01950209 31.87200492 13.04250915 31.87060547 15.06445312 C31.86745331 16.36249878 31.86430115 17.66054443 31.86105347 18.9979248 C31.86284325 20.42570021 31.8648942 21.85347531 31.8671875 23.28125 C31.86651442 24.73474138 31.86554436 26.18823264 31.86428833 27.64172363 C31.86281154 30.69166127 31.8649653 33.74156966 31.86962891 36.79150391 C31.8753262 40.70930559 31.87204709 44.62703878 31.86605644 48.54483795 C31.86245031 51.54730754 31.86358965 54.54976077 31.86618423 57.55223083 C31.86685336 58.99718738 31.86602558 60.44214539 31.86370468 61.88710022 C31.86117735 63.90324883 31.86570948 65.91940262 31.87060547 67.93554688 C31.87140106 69.08502808 31.87219666 70.23450928 31.87301636 71.41882324 C31.70701912 73.93085506 31.70701912 73.93085506 33 75 C43.51760556 75.75568191 51.34817134 75.73176353 59.6875 68.75 C63.49239944 64.22525472 66.41267305 59.30461097 69 54 C70.65 54 72.3 54 74 54 C73.73780507 56.23019922 73.46464068 58.4591087 73.1875 60.6875 C72.96126953 62.54955078 72.96126953 62.54955078 72.73046875 64.44921875 C71.78256944 70.35458074 70.34487441 76.17221087 69 82 C46.23 82 23.46 82 0 82 C0 80.35 0 78.7 0 77 C2.64 76.67 5.28 76.34 8 76 C9.09555859 72.71332424 9.1269393 70.29223384 9.12939453 66.83203125 C9.13254669 65.56061279 9.13569885 64.28919434 9.13894653 62.97924805 C9.13715664 61.59033168 9.13510566 60.20141563 9.1328125 58.8125 C9.13348613 57.38907861 9.13445665 55.96565733 9.13571167 54.54223633 C9.13718586 51.55972193 9.13504302 48.57723748 9.13037109 45.59472656 C9.12467397 41.77134313 9.12795446 37.9480299 9.13394356 34.12464905 C9.13755668 31.18558218 9.13640712 28.24653197 9.13381577 25.3074646 C9.13314858 23.89765413 9.13396766 22.48784215 9.13629532 21.07803345 C9.13883408 19.10801217 9.13427869 17.1379856 9.12939453 15.16796875 C9.12859894 14.04672607 9.12780334 12.9254834 9.12698364 11.77026367 C9.12202556 8.91198362 9.12202556 8.91198362 8 6 C5.36 5.67 2.72 5.34 0 5 C0 3.35 0 1.7 0 0 Z " fill="#026325" transform="translate(479,66)"/>
<path d="M0 0 C14.19 0 28.38 0 43 0 C43 1.65 43 3.3 43 5 C39.7 5.66 36.4 6.32 33 7 C32.20819008 10.95904958 31.86921043 14.05695773 31.85473633 18.02783203 C31.84835648 19.21901642 31.84197662 20.41020081 31.83540344 21.63748169 C31.83429062 22.91469086 31.8331778 24.19190002 31.83203125 25.5078125 C31.82870285 26.82538544 31.82537445 28.14295837 31.82194519 29.50045776 C31.8159724 32.28270284 31.81410356 35.06491693 31.81469727 37.84716797 C31.8147992 41.41272056 31.80110705 44.9780754 31.78392506 48.54358101 C31.77014561 51.94832807 31.77071707 55.35303788 31.76953125 58.7578125 C31.76234573 60.03907013 31.75516022 61.32032776 31.74775696 62.64041138 C31.75083359 63.82529144 31.75391022 65.01017151 31.75708008 66.23095703 C31.75565506 67.27510773 31.75423004 68.31925842 31.75276184 69.39505005 C31.81486922 72.23537181 31.81486922 72.23537181 34 75 C36.64398632 75.33579231 38.98166454 75.47564079 41.625 75.4375 C42.35195068 75.42847656 43.07890137 75.41945313 43.82788086 75.41015625 C51.72980553 75.15482647 56.26106208 73.09685191 61.6875 67.3125 C65.06444296 63.19975525 67.61679806 58.74443889 70 54 C71.65 54 73.3 54 75 54 C73.35 63.24 71.7 72.48 70 82 C46.9 82 23.8 82 0 82 C0.33 80.35 0.66 78.7 1 77 C2.8125 75.92578125 2.8125 75.92578125 5 75.3125 C7.14126234 74.71833374 7.14126234 74.71833374 9 74 C10.34152004 71.31695992 10.13453265 69.24107794 10.14526367 66.23681641 C10.15164352 65.02861237 10.15802338 63.82040833 10.16459656 62.57559204 C10.16626579 60.60844742 10.16626579 60.60844742 10.16796875 58.6015625 C10.17118143 57.24636805 10.17454552 55.89117394 10.17805481 54.53598022 C10.18404735 51.69292395 10.18589462 48.84989808 10.18530273 46.00683594 C10.18520119 42.36618951 10.19884462 38.72573847 10.21607494 35.08513832 C10.22720235 32.28499458 10.2292217 29.48489793 10.22869301 26.68473434 C10.23044545 24.69057522 10.24128308 22.6964308 10.25224304 20.70230103 C10.24916641 19.48779266 10.24608978 18.2732843 10.24291992 17.02197266 C10.24434494 15.95322906 10.24576996 14.88448547 10.24723816 13.78335571 C9.99815965 10.97928176 9.54272424 9.33609671 8 7 C6.06018382 6.09390008 6.06018382 6.09390008 3.875 5.75 C2.59625 5.5025 1.3175 5.255 0 5 C0 3.35 0 1.7 0 0 Z " fill="#026325" transform="translate(753,66)"/>
<path d="M0 0 C13.53 0 27.06 0 41 0 C41.495 1.98 41.495 1.98 42 4 C41.04287109 4.39832031 41.04287109 4.39832031 40.06640625 4.8046875 C39.24011719 5.15789062 38.41382813 5.51109375 37.5625 5.875 C36.73878906 6.22304687 35.91507813 6.57109375 35.06640625 6.9296875 C32.84253285 7.8244937 32.84253285 7.8244937 32 10 C31.8932506 11.9854067 31.85114512 13.97440996 31.83886719 15.96264648 C31.82925964 17.21411972 31.8196521 18.46559296 31.80975342 19.75498962 C31.80490617 21.12702249 31.80062716 22.49905746 31.796875 23.87109375 C31.79112394 25.27352399 31.7853662 26.67595421 31.77960205 28.0783844 C31.76909328 31.01978929 31.76324961 33.96116686 31.75976562 36.90258789 C31.75427675 40.67344649 31.73024028 44.44394474 31.70179367 48.21469021 C31.68318075 51.11173055 31.67796246 54.00868379 31.67642975 56.90577888 C31.67340033 58.29607173 31.66536202 59.68636295 31.65224457 61.07659721 C31.63521189 63.020312 31.6389051 64.96417513 31.64355469 66.90795898 C31.63990906 68.01445297 31.63626343 69.12094696 31.63250732 70.26097107 C31.78130964 72.99219869 31.78130964 72.99219869 33.29180908 74.80653381 C35.9539049 76.66646722 38.87814688 77.23426244 42 78 C42 79.32 42 80.64 42 82 C28.14 82 14.28 82 0 82 C0.33 80.35 0.66 78.7 1 77 C2.134375 76.71125 3.26875 76.4225 4.4375 76.125 C5.613125 75.75375 6.78875 75.3825 8 75 C9.37942835 72.2411433 9.12721397 70.01714365 9.12939453 66.9296875 C9.13254669 65.65496582 9.13569885 64.38024414 9.13894653 63.06689453 C9.1371567 61.669596 9.13510573 60.27229779 9.1328125 58.875 C9.13348585 57.44775374 9.13445615 56.02050759 9.13571167 54.59326172 C9.13718715 51.60057484 9.13503888 48.60791779 9.13037109 45.61523438 C9.12467388 41.77490871 9.12795369 37.93465293 9.13394356 34.09432983 C9.13755319 31.14672314 9.13640873 28.19913307 9.13381577 25.25152588 C9.13314761 23.83530672 9.13397104 22.41908606 9.13629532 21.00286865 C9.13882837 19.02535022 9.13428457 17.04782651 9.12939453 15.0703125 C9.12859894 13.94383301 9.12780334 12.81735352 9.12698364 11.65673828 C9.18045513 9.02424226 9.18045513 9.02424226 8 7 C6.11235097 6.31527335 6.11235097 6.31527335 3.9375 5.875 C3.20402344 5.70742187 2.47054687 5.53984375 1.71484375 5.3671875 C1.14894531 5.24601562 0.58304688 5.12484375 0 5 C0 3.35 0 1.7 0 0 Z " fill="#026325" transform="translate(833,66)"/>
<path d="M0 0 C13.53 0 27.06 0 41 0 C41 1.65 41 3.3 41 5 C38.03 5.66 35.06 6.32 32 7 C31.93052605 15.5534877 31.87720224 24.10685775 31.84456348 32.66055775 C31.82889944 36.63228627 31.80764801 40.60382193 31.77368164 44.57543945 C31.74111404 48.40743089 31.72315255 52.23923668 31.71536827 56.07135582 C31.70982004 57.53422659 31.69898575 58.99708707 31.68280983 60.45987892 C31.66106921 62.50708696 31.65803153 64.5535254 31.65942383 66.60083008 C31.65276199 67.76665115 31.64610016 68.93247223 31.63923645 70.13362122 C31.76451241 72.98276196 31.76451241 72.98276196 33.32206726 74.82572937 C35.70483458 76.49326563 38.22426712 77.19812161 41 78 C41 79.32 41 80.64 41 82 C27.47 82 13.94 82 0 82 C0.33 80.35 0.66 78.7 1 77 C2.7015625 76.5978125 2.7015625 76.5978125 4.4375 76.1875 C6.2009375 75.5996875 6.2009375 75.5996875 8 75 C9.10976041 71.67071876 9.12030895 69.19972643 9.11352539 65.69262695 C9.11341209 63.74094353 9.11341209 63.74094353 9.11329651 61.74983215 C9.10818985 60.3293148 9.10297385 58.90879783 9.09765625 57.48828125 C9.09579091 56.03525338 9.09436756 54.58222489 9.09336853 53.12919617 C9.08955246 49.30693828 9.07972993 45.48471845 9.06866455 41.66247559 C9.05843087 37.76131709 9.05386671 33.86015243 9.04882812 29.95898438 C9.03810686 22.30597224 9.02104135 14.65299146 9 7 C4.545 6.01 4.545 6.01 0 5 C0 3.35 0 1.7 0 0 Z " fill="#026325" transform="translate(434,66)"/>
<path d="M0 0 C0.66 0 1.32 0 2 0 C2.24645264 0.60884033 2.49290527 1.21768066 2.74682617 1.8449707 C8.66685905 16.57558426 8.66685905 16.57558426 15.125 31.07421875 C16 33 16 33 17 36 C20.73459425 28.87732025 23.96202758 21.7400687 26.765625 14.203125 C28.62838127 9.36939037 30.79367763 4.6849143 33 0 C33.66 0 34.32 0 35 0 C38.15921444 9.885392 40.9246056 19.85455114 43.57421875 29.88647461 C44.25582687 32.45949602 44.94817228 35.02948821 45.640625 37.59960938 C46.07878521 39.25242929 46.51630859 40.90541818 46.953125 42.55859375 C47.15931458 43.31804794 47.36550415 44.07750214 47.57794189 44.85997009 C48.66028305 49.01128207 49.22412088 52.66856453 49 57 C46.36 57 43.72 57 41 57 C37.98817045 47.05977203 35.17391607 37.16261578 33 27 C30.95205621 30.07191569 29.62391913 33.02248801 28.1796875 36.41796875 C27.91616486 37.03521317 27.65264221 37.65245758 27.38113403 38.28840637 C26.5429077 40.25357177 25.70890356 42.22049693 24.875 44.1875 C24.30626742 45.52290482 23.73726013 46.85819268 23.16796875 48.19335938 C21.77545959 51.46089012 20.38673062 54.73001199 19 58 C18.01 58 17.02 58 16 58 C14.46941362 54.3890235 12.93948757 50.777768 11.41015625 47.16625977 C10.63576125 45.3379074 9.86085298 43.50977245 9.0859375 41.68164062 C8.59609375 40.52470703 8.10625 39.36777344 7.6015625 38.17578125 C6.92601318 36.58117065 6.92601318 36.58117065 6.23681641 34.9543457 C5.13096521 32.31283261 4.05459757 29.6623208 3 27 C0.33222564 34.49247268 -1.8491521 42.01274034 -3.69238281 49.7421875 C-4.90876802 54.81753603 -4.90876802 54.81753603 -6 57 C-8.97 57 -11.94 57 -15 57 C-12.49817584 46.12418112 -9.83569107 35.30456265 -6.96289062 24.52075195 C-6.36521797 22.27575645 -5.77224856 20.02955265 -5.1796875 17.78320312 C-4.79454377 16.33065677 -4.4091372 14.87818007 -4.0234375 13.42578125 C-3.84944427 12.76637039 -3.67545105 12.10695953 -3.4961853 11.42756653 C-2.4645539 7.5672012 -1.30133359 3.77779543 0 0 Z " fill="#BC9547" transform="translate(229,166)"/>
<path d="M0 0 C3.03437197 2.03524949 4.6207276 3.19812029 5.796875 6.7265625 C3.546875 9.2890625 3.546875 9.2890625 0.796875 11.7265625 C-2.45746226 11.39641234 -4.97258774 9.85228977 -7.765625 8.2265625 C-14.04841236 4.58191014 -19.67538646 3.55194556 -26.79296875 5.3984375 C-28.95454019 6.12237612 -31.08474671 6.88522077 -33.203125 7.7265625 C-33.203125 8.3865625 -33.203125 9.0465625 -33.203125 9.7265625 C-33.863125 9.7265625 -34.523125 9.7265625 -35.203125 9.7265625 C-35.203125 10.3865625 -35.203125 11.0465625 -35.203125 11.7265625 C-35.863125 11.7265625 -36.523125 11.7265625 -37.203125 11.7265625 C-39.79820712 19.06534311 -41.32098206 25.32929379 -38.203125 32.7265625 C-35.0192153 37.58792847 -31.8701838 41.04593045 -26.203125 42.7265625 C-18.56470087 43.53916081 -11.25148505 43.90854037 -4.71875 39.40625 C-2.62276339 37.23375412 -2.62276339 37.23375412 -0.203125 31.7265625 C-4.823125 31.7265625 -9.443125 31.7265625 -14.203125 31.7265625 C-14.30078125 25.57421875 -14.30078125 25.57421875 -14.203125 23.7265625 C-12.51795546 22.04139296 -10.41544712 22.59648231 -8.109375 22.59375 C-7.07941406 22.59246094 -6.04945313 22.59117187 -4.98828125 22.58984375 C-3.36212891 22.59564453 -3.36212891 22.59564453 -1.703125 22.6015625 C-0.61902344 22.59769531 0.46507812 22.59382813 1.58203125 22.58984375 C2.61199219 22.59113281 3.64195312 22.59242188 4.703125 22.59375 C6.13108398 22.59544189 6.13108398 22.59544189 7.58789062 22.59716797 C9.796875 22.7265625 9.796875 22.7265625 10.796875 23.7265625 C11.46162859 31.86979402 8.77983456 38.35944751 3.796875 44.7265625 C-3.18928211 51.6960462 -8.79281902 53.08799264 -18.515625 53.1015625 C-19.42763672 53.12605469 -20.33964844 53.15054688 -21.27929688 53.17578125 C-29.05116516 53.20920864 -33.84500671 50.96530803 -40.203125 46.7265625 C-40.203125 46.0665625 -40.203125 45.4065625 -40.203125 44.7265625 C-40.863125 44.7265625 -41.523125 44.7265625 -42.203125 44.7265625 C-42.203125 44.0665625 -42.203125 43.4065625 -42.203125 42.7265625 C-42.863125 42.7265625 -43.523125 42.7265625 -44.203125 42.7265625 C-49.25458119 34.47585072 -51.84805186 26.28769689 -49.73828125 16.58984375 C-46.8893342 8.00928726 -40.99181981 1.36523107 -33.140625 -2.9609375 C-22.23492421 -7.83369743 -10.11105292 -5.84433201 0 0 Z " fill="#BB9547" transform="translate(477.203125,171.2734375)"/>
<path d="M0 0 C2.5851165 1.85296812 4.71563885 3.76640243 7 6 C5.64062915 8.8605891 4.35479531 10.85927699 2 13 C-0.5960213 12.06254786 -2.74523359 11.19723851 -4.9375 9.5 C-10.0176148 5.80537106 -15.90857762 5.14980147 -22 6 C-24.45588852 6.85742711 -26.72924909 7.86462454 -29.0546875 9.02734375 C-31 10 -31 10 -34 11 C-35.15020525 13.24743756 -35.15020525 13.24743756 -36 16 C-36.37125 16.94875 -36.7425 17.8975 -37.125 18.875 C-38.93264192 25.330864 -37.76291484 30.71961587 -36 37 C-35.34 37 -34.68 37 -34 37 C-32.33333333 38.66666667 -30.66666667 40.33333333 -29 42 C-25.36294736 44.44416611 -21.92505598 44.29962558 -17.625 44.3125 C-16.33851563 44.32925781 -15.05203125 44.34601563 -13.7265625 44.36328125 C-8.46889362 43.8507412 -5.22182044 42.35390913 -1.6875 38.4375 C-0.00883883 36.1355288 -0.00883883 36.1355288 1 34 C-3.29 33.67 -7.58 33.34 -12 33 C-12.09765625 26.84765625 -12.09765625 26.84765625 -12 25 C-10.34605883 23.34605883 -8.39684587 23.87000317 -6.125 23.8671875 C-5.14015625 23.86589844 -4.1553125 23.86460937 -3.140625 23.86328125 C-2.10421875 23.86714844 -1.0678125 23.87101562 0 23.875 C1.55460938 23.86919922 1.55460938 23.86919922 3.140625 23.86328125 C4.12546875 23.86457031 5.1103125 23.86585938 6.125 23.8671875 C7.03507813 23.86831543 7.94515625 23.86944336 8.8828125 23.87060547 C11 24 11 24 12 25 C13.10529248 33.11755791 10.4377394 39.3433909 6 46 C5.34 46 4.68 46 4 46 C4 46.66 4 47.32 4 48 C3.34 48 2.68 48 2 48 C2 48.66 2 49.32 2 50 C-4.36090771 53.74083721 -9.11314135 54.62673728 -16.4375 54.5 C-17.32759766 54.51546875 -18.21769531 54.5309375 -19.13476562 54.546875 C-26.87445796 54.5016467 -32.60367764 52.26421491 -39 48 C-39 47.34 -39 46.68 -39 46 C-39.66 46 -40.32 46 -41 46 C-42.47265625 43.953125 -42.47265625 43.953125 -44.0625 41.25 C-44.58972656 40.36828125 -45.11695313 39.4865625 -45.66015625 38.578125 C-49.13788956 31.88627664 -48.98918013 23.51554308 -47.3984375 16.25390625 C-46.26063741 12.75430901 -45.05464942 10.08197413 -43 7 C-42.34 7 -41.68 7 -41 7 C-40.62101563 6.09121094 -40.62101563 6.09121094 -40.234375 5.1640625 C-38.82978933 2.70159269 -37.66042712 1.82312482 -35.25 0.375 C-34.59515625 -0.02976563 -33.9403125 -0.43453125 -33.265625 -0.8515625 C-22.76383993 -6.17488114 -10.31126641 -5.4882547 0 0 Z " fill="#BB9547" transform="translate(591,170)"/>
<path d="M0 0 C4.32718373 2.52419051 9.41579405 5.60512254 11.01171875 10.55859375 C11.10582031 11.14640625 11.19992187 11.73421875 11.296875 12.33984375 C11.956875 12.33984375 12.616875 12.33984375 13.296875 12.33984375 C15.60362662 16.94411999 15.66355833 21.1166012 15.671875 26.15234375 C15.69636719 26.92126953 15.72085938 27.69019531 15.74609375 28.48242188 C15.78308725 35.78863748 13.17347086 40.60537549 9.109375 46.52734375 C5.56763979 50.06907896 1.75789372 52.14000937 -2.703125 54.33984375 C-3.693125 54.83484375 -3.693125 54.83484375 -4.703125 55.33984375 C-7.73758445 55.63107794 -10.78130732 55.61782542 -13.828125 55.65234375 C-14.65828125 55.68134766 -15.4884375 55.71035156 -16.34375 55.74023438 C-23.94504993 55.81767709 -28.72494405 53.38369342 -34.890625 49.15234375 C-40.97335653 43.06961222 -43.98348346 35.88395144 -44.703125 27.33984375 C-44.68960783 18.18871859 -41.8994219 12.01741195 -35.80859375 5.23828125 C-26.0607644 -3.55104169 -11.83555398 -5.43429848 0 0 Z M-32.35546875 16.53515625 C-35.87165058 21.24378236 -35.09627639 26.68736524 -34.703125 32.33984375 C-32.78221105 38.44157042 -28.17179236 42.17285113 -22.87109375 45.484375 C-17.53103003 47.59153528 -10.54567896 47.41974651 -5.21484375 45.39453125 C0.05376272 42.23932059 3.90934998 38.0316228 6.296875 32.33984375 C7.20620771 25.63949747 7.05287869 19.61752125 3 14.02734375 C-0.09480243 10.960934 -3.77490197 9.13802836 -7.703125 7.33984375 C-8.363125 7.00984375 -9.023125 6.67984375 -9.703125 6.33984375 C-19.9094377 5.04817347 -25.98858337 8.84848369 -32.35546875 16.53515625 Z " fill="#BC9547" transform="translate(326.703125,168.66015625)"/>
<path d="M0 0 C3.73163475 1.86581737 5.64848392 3.39129498 8.546875 6.28125 C9.39121094 7.12300781 10.23554687 7.96476563 11.10546875 8.83203125 C12.41451172 10.15267578 12.41451172 10.15267578 13.75 11.5 C14.63816406 12.38042969 15.52632812 13.26085937 16.44140625 14.16796875 C17.28058594 15.00972656 18.11976563 15.85148438 18.984375 16.71875 C19.75491211 17.49154297 20.52544922 18.26433594 21.31933594 19.06054688 C23 21 23 21 23 23 C23.66 23 24.32 23 25 23 C25 23.66 25 24.32 25 25 C25.66 25 26.32 25 27 25 C27 25.66 27 26.32 27 27 C27.66 27 28.32 27 29 27 C29 27.66 29 28.32 29 29 C29.66 29 30.32 29 31 29 C31 29.66 31 30.32 31 31 C31.66 31 32.32 31 33 31 C33 31.66 33 32.32 33 33 C33.66 33 34.32 33 35 33 C35 33.66 35 34.32 35 35 C35.66 35 36.32 35 37 35 C37.66 35.99 38.32 36.98 39 38 C39.33 26.12 39.66 14.24 40 2 C42.97 2 45.94 2 49 2 C49 20.81 49 39.62 49 59 C44.49784212 57.87446053 44.49784212 57.87446053 42.01171875 55.33984375 C41.47434082 54.7979541 40.93696289 54.25606445 40.38330078 53.69775391 C39.82368652 53.11687012 39.26407227 52.53598633 38.6875 51.9375 C37.80940674 51.04297119 37.80940674 51.04297119 36.91357422 50.13037109 C34.05894855 47.20261104 31.27267899 44.24276299 28.625 41.125 C26.25182959 38.37918014 23.81107226 35.74695881 21.24609375 33.1796875 C20.62404053 32.55562012 20.0019873 31.93155273 19.36108398 31.28857422 C16.24600883 28.18706445 13.12208369 25.09445463 10 22 C9.67 33.55 9.34 45.1 9 57 C6.03 57 3.06 57 0 57 C0 38.19 0 19.38 0 0 Z " fill="#BC9547" transform="translate(765,166)"/>
<path d="M0 0 C2.6881249 -0.08164159 5.373723 -0.14079668 8.0625 -0.1875 C8.81466797 -0.21263672 9.56683594 -0.23777344 10.34179688 -0.26367188 C17.14711201 -0.35205259 21.81278456 0.90788088 26.875 5.75 C29.28748674 9.4396856 30 11.60259552 30 16 C28.64859776 19.34632935 26.9996064 22.0005904 25 25 C25.928125 25.53625 26.85625 26.0725 27.8125 26.625 C31.75631467 29.56352857 33.52161929 32.04703267 34.31640625 36.953125 C34.53436545 40.63733863 34.09387586 42.80051379 32.5 46.1875 C28.62185787 50.5504099 24.55103606 53.33673062 18.875 54.8125 C12.92208845 55.10054411 6.95607214 55.27145637 1 55 C0 54 0 54 -0.12025452 51.82969666 C-0.11803391 50.87261307 -0.11581329 49.91552948 -0.11352539 48.92944336 C-0.11344986 47.84839828 -0.11337433 46.76735321 -0.11329651 45.65354919 C-0.10813522 44.4775264 -0.10297394 43.3015036 -0.09765625 42.08984375 C-0.0962413 40.89267227 -0.09482635 39.69550079 -0.09336853 38.46205139 C-0.08774979 34.62050934 -0.07519411 30.77902457 -0.0625 26.9375 C-0.05748741 24.34049563 -0.05292409 21.74349035 -0.04882812 19.14648438 C-0.03777427 12.76430321 -0.02101792 6.3821557 0 0 Z M9 8 C9 12.62 9 17.24 9 22 C14.44124334 21.80518374 14.44124334 21.80518374 19.0625 19.375 C20.43794168 15.89054774 19.9905227 13.56588173 19 10 C15.77237171 7.25053886 13.49830584 8 9 8 Z M9 30 C9 35.61 9 41.22 9 47 C10.423125 46.855625 11.84625 46.71125 13.3125 46.5625 C14.11300781 46.48128906 14.91351562 46.40007812 15.73828125 46.31640625 C18.16087179 46.04734307 18.16087179 46.04734307 21 45 C21 44.34 21 43.68 21 43 C21.66 43 22.32 43 23 43 C25.2408243 40.26259624 25.2408243 40.26259624 24.9375 37.5625 C23.69760721 34.17345971 21.96770627 32.97847085 19 31 C15.4202491 29.63106761 15.4202491 29.63106761 9 30 Z " fill="#BC9547" transform="translate(673,168)"/>
<path d="M0 0 C22.69546742 0 22.69546742 0 27.43359375 3.37890625 C31.03651064 7.10761076 32.65528475 10.93170849 33.5 16 C32.54614432 21.72313406 30.54959444 25.7982737 25.9375 29.375 C24.968125 29.91125 23.99875 30.4475 23 31 C22.01 31.66 21.02 32.32 20 33 C20.39380859 33.55985596 20.78761719 34.11971191 21.19335938 34.6965332 C22.96951317 37.23017981 24.73484003 39.77118341 26.5 42.3125 C27.12003906 43.19357422 27.74007813 44.07464844 28.37890625 44.98242188 C28.96542969 45.82998047 29.55195313 46.67753906 30.15625 47.55078125 C30.70087891 48.33106689 31.24550781 49.11135254 31.80664062 49.9152832 C33 52 33 52 33 55 C29.94792162 55.29346907 27.04443712 55.41682935 24 55 C21.6875 52.875 21.6875 52.875 20 50 C19.2575 48.948125 18.515 47.89625 17.75 46.8125 C16 44 16 44 16 42 C15.34 42 14.68 42 14 42 C13.34 40.02 12.68 38.04 12 36 C11.34 36 10.68 36 10 36 C9.67 42.27 9.34 48.54 9 55 C6.03 55 3.06 55 0 55 C0 36.85 0 18.7 0 0 Z M9 8 C9 13.61 9 19.22 9 25 C15.84628585 25 17.0698031 24.99111177 22 21 C23.42041821 18.15916359 23.31452272 16.14522722 23 13 C20.76793569 10.15219381 19.45007001 9.15002334 16 8 C13.69 8 11.38 8 9 8 Z " fill="#BC9547" transform="translate(352,168)"/>
<path d="M0 0 C2.97 0 5.94 0 9 0 C9 6.27 9 12.54 9 19 C12.81189324 15.77455187 16.49814027 12.63139582 19.78125 8.86328125 C27.32537201 0.37488831 27.32537201 0.37488831 32.4375 -0.76953125 C35.38832107 -0.75213254 38.10491578 -0.55437783 41 0 C39.6489735 3.01015294 38.13664313 5.11967466 35.8125 7.453125 C35.19632813 8.071875 34.58015625 8.690625 33.9453125 9.328125 C33.30335938 9.96234375 32.66140625 10.5965625 32 11.25 C31.35804688 11.8996875 30.71609375 12.549375 30.0546875 13.21875 C29.43851563 13.83234375 28.82234375 14.4459375 28.1875 15.078125 C27.62417969 15.63918945 27.06085937 16.20025391 26.48046875 16.77832031 C25 18 25 18 23 18 C23 18.66 23 19.32 23 20 C22.34 20 21.68 20 21 20 C21 20.66 21 21.32 21 22 C20.34 22 19.68 22 19 22 C19 22.66 19 23.32 19 24 C18.34 24 17.68 24 17 24 C19.73734407 28.93430631 23.29185946 32.70282338 27.13671875 36.79296875 C29 39 29 39 29 41 C29.66 41 30.32 41 31 41 C31 41.66 31 42.32 31 43 C31.66 43 32.32 43 33 43 C34.65625 44.609375 34.65625 44.609375 36.5 46.75 C37.1084375 47.44609375 37.716875 48.1421875 38.34375 48.859375 C39.87976963 50.84460792 40.9723966 52.71872045 42 55 C40.27305325 55.13609913 38.54295278 55.23249228 36.8125 55.3125 C35.84957031 55.37050781 34.88664063 55.42851562 33.89453125 55.48828125 C29.84004565 54.80432619 28.69946375 53.08567615 26 50 C24.75902952 48.67869238 23.51390837 47.36127607 22.265625 46.046875 C20.92623057 44.61538076 19.58770593 43.18307225 18.25 41.75 C16.90116399 40.3071773 15.55221197 38.86446305 14.203125 37.421875 C13.61176758 36.78862305 13.02041016 36.15537109 12.41113281 35.50292969 C11.61817728 34.65839088 10.8191533 33.8191533 10 33 C9.67 40.26 9.34 47.52 9 55 C6.03 55 3.06 55 0 55 C0 36.85 0 18.7 0 0 Z " fill="#BC9547" transform="translate(823,168)"/>
<path d="M0 0 C10.23 0 20.46 0 31 0 C31 2.97 31 5.94 31 9 C23.74 9 16.48 9 9 9 C9 12.96 9 16.92 9 21 C16.26 21 23.52 21 31 21 C31 23.64 31 26.28 31 29 C30 30 30 30 27.95874023 30.11352539 C27.08419189 30.10828857 26.20964355 30.10305176 25.30859375 30.09765625 C24.36435547 30.09443359 23.42011719 30.09121094 22.44726562 30.08789062 C21.45404297 30.07951172 20.46082031 30.07113281 19.4375 30.0625 C18.44041016 30.05798828 17.44332031 30.05347656 16.41601562 30.04882812 C13.94398513 30.03700023 11.47198528 30.01906415 9 30 C9 35.28 9 40.56 9 46 C16.26 46 23.52 46 31 46 C31 48.97 31 51.94 31 55 C20.77 55 10.54 55 0 55 C0 36.85 0 18.7 0 0 Z " fill="#BC9547" transform="translate(611,168)"/>
<path d="M0 0 C1 1 1 1 1.09765625 3.06640625 C1.08605469 3.89011719 1.07445312 4.71382812 1.0625 5.5625 C1.05347656 6.38878906 1.04445313 7.21507812 1.03515625 8.06640625 C1.02355469 8.70449219 1.01195312 9.34257812 1 10 C-2.24415849 9.5252451 -5.24165851 8.92392232 -8.375 7.9375 C-16.33926257 5.87777692 -21.98212752 6.87499099 -29 11 C-33.39018123 14.64291634 -35.51677915 17.93340615 -36.40625 23.578125 C-36.62839474 29.90925014 -35.72682353 34.0545127 -31.81640625 39.1171875 C-26.94154532 44.17026915 -22.38088836 45.23047237 -15.4375 45.4375 C-10.17340587 45.28500596 -6.62872106 44.4149849 -2 42 C-1.01 42 -0.02 42 1 42 C1 45.3 1 48.6 1 52 C-4.57631588 54.80682031 -9.09754055 55.54896109 -15.3125 55.5 C-16.15264648 55.49427979 -16.99279297 55.48855957 -17.85839844 55.48266602 C-26.64120427 55.23000297 -32.40296458 52.59086285 -38.875 46.6875 C-39.95156047 45.48877664 -40.99577568 44.25994192 -42 43 C-42.43441406 42.46246094 -42.86882813 41.92492187 -43.31640625 41.37109375 C-47.59159812 34.71251966 -46.91390632 25.58189232 -46 18 C-45.16107011 14.82337782 -43.9896659 12.59278338 -42 10 C-41.5875 9.39027344 -41.175 8.78054687 -40.75 8.15234375 C-31.263666 -4.54101794 -13.77199727 -5.67947751 0 0 Z " fill="#BC9547" transform="translate(1013,169)"/>
<path d="M0 0 C3 1 3 1 4.578125 3.81640625 C5.14641625 5.06013674 5.7029001 6.30930321 6.25 7.5625 C6.55228516 8.23216797 6.85457031 8.90183594 7.16601562 9.59179688 C8.12334271 11.7224938 9.06396707 13.85987065 10 16 C10.29455078 16.67144043 10.58910156 17.34288086 10.89257812 18.03466797 C12.05446617 20.68660595 13.21374935 23.3396204 14.36523438 25.99609375 C16.93845846 31.9174004 19.66177241 37.76145802 22.421875 43.59765625 C27 53.46782178 27 53.46782178 27 57 C24.03 57 21.06 57 18 57 C16.02 52.71 14.04 48.42 12 44 C5.07 44 -1.86 44 -9 44 C-10.98 48.29 -12.96 52.58 -15 57 C-17.97 57 -20.94 57 -24 57 C-23.42845517 52.17850639 -21.99902113 48.4778146 -19.875 44.125 C-19.23522405 42.79511375 -18.5972608 41.46435422 -17.9609375 40.1328125 C-17.63448242 39.4512207 -17.30802734 38.76962891 -16.97167969 38.06738281 C-15.40908638 34.74274962 -13.95502425 31.37276685 -12.5 28 C-9.6180246 21.34119298 -6.58524539 14.76471739 -3.48046875 8.20703125 C-2.22941317 5.49696099 -1.07467084 2.78365958 0 0 Z M1 20 C-0.00460531 22.12282669 -1.00355602 24.24833021 -2 26.375 C-2.556875 27.55835938 -3.11375 28.74171875 -3.6875 29.9609375 C-5.13216041 32.75428575 -5.13216041 32.75428575 -5 35 C-0.71 35 3.58 35 8 35 C6.32819664 29.74576086 4.62305301 24.87138415 2 20 C1.67 20 1.34 20 1 20 Z " fill="#BC9547" transform="translate(733,166)"/>
<path d="M0 0 C2.24820467 2.0666467 3.62328132 3.91385016 4.89770508 6.68261719 C5.23848587 7.41478455 5.57926666 8.1469519 5.93037415 8.90130615 C6.28979599 9.69184387 6.64921783 10.48238159 7.01953125 11.296875 C7.40058517 12.12270081 7.7816391 12.94852661 8.17424011 13.79937744 C8.98171952 15.55310777 9.7859437 17.30834003 10.5871582 19.06494141 C11.79054986 21.70190125 13.00466927 24.33369414 14.22070312 26.96484375 C18.77798902 36.86933104 23.08125573 46.82460777 27 57 C23.7 57 20.4 57 17 57 C15.02 52.71 13.04 48.42 11 44 C4.07 44 -2.86 44 -10 44 C-11.98 48.29 -13.96 52.58 -16 57 C-18.97 57 -21.94 57 -25 57 C-24.41296521 51.72393423 -22.65628517 47.55619182 -20.4296875 42.8125 C-20.0703714 42.03293945 -19.7110553 41.25337891 -19.34085083 40.45019531 C-18.57925711 38.80132691 -17.81419657 37.15405592 -17.04589844 35.50830078 C-15.89310554 33.03878573 -14.7502551 30.5648813 -13.609375 28.08984375 C-9.23944851 18.63981545 -4.72425673 9.27823589 0 0 Z M0 20 C-1.00732399 21.93370231 -2.00563288 23.87210306 -3 25.8125 C-3.556875 26.89144531 -4.11375 27.97039062 -4.6875 29.08203125 C-6.20510619 31.92273466 -6.20510619 31.92273466 -6 35 C-1.71 35 2.58 35 7 35 C5.32819664 29.74576086 3.62305301 24.87138415 1 20 C0.67 20 0.34 20 0 20 Z " fill="#BC9547" transform="translate(516,166)"/>
<path d="M0 0 C19 0 19 0 27 4 C31.18259722 8.39708938 32.3224847 11.85483531 32.2109375 17.9453125 C31.72624101 22.66661532 29.55001006 25.43719901 26.3125 28.75 C21.01616044 32.83724963 15.51860989 33 9 33 C9 40.26 9 47.52 9 55 C6.03 55 3.06 55 0 55 C0 36.85 0 18.7 0 0 Z M9 8 C9 13.61 9 19.22 9 25 C14.63504031 25 16.47453622 24.87984058 21 22 C23.0345567 19.43468938 23.01421348 18.23215352 22.8125 14.9375 C21.95037011 11.82056886 21.50690504 10.92159241 19 9 C16.49796352 8.42428504 16.49796352 8.42428504 13.8125 8.3125 C11.4303125 8.1578125 11.4303125 8.1578125 9 8 Z " fill="#BC9547" transform="translate(896,168)"/>
<path d="M0 0 C0.845625 -0.00773437 1.69125 -0.01546875 2.5625 -0.0234375 C5.43365432 0.4458858 6.83441027 1.48010899 9 3.375 C9.33 2.385 9.66 1.395 10 0.375 C12.31 0.375 14.62 0.375 17 0.375 C17.07465394 4.51925088 17.12883721 8.66313624 17.16479492 12.80786133 C17.17979877 14.21515734 17.20020863 15.62240724 17.22631836 17.02954102 C17.26307665 19.06277907 17.27980984 21.09539432 17.29296875 23.12890625 C17.3086792 24.34908447 17.32438965 25.5692627 17.34057617 26.82641602 C16.9339348 31.06335678 15.97242836 33.61190877 14 37.375 C9.47327491 40.90584557 5.87975976 42.03919638 0.14453125 41.765625 C-4.2233968 40.97000969 -6.97088777 38.50702345 -9.875 35.3125 C-11 33.375 -11 33.375 -11 30.375 C-7.6875 30.1875 -7.6875 30.1875 -4 30.375 C-3.525625 30.87 -3.05125 31.365 -2.5625 31.875 C-0.53647924 33.81997993 0.43218429 33.57695096 3.1875 33.5625 C4.445625 33.500625 5.70375 33.43875 7 33.375 C7.66 31.395 8.32 29.415 9 27.375 C8.44183594 27.69726562 7.88367188 28.01953125 7.30859375 28.3515625 C3.31424447 30.12232309 -0.71862862 29.93102226 -5 29.375 C-9.35800767 26.96418725 -11.35830998 24.04085583 -13 19.375 C-13.67899751 14.29079915 -13.59950353 10.55259622 -11.25 5.9375 C-7.73105022 1.92980719 -5.45668518 -0.04990871 0 0 Z M-3.4375 8.5 C-5.6351705 11.1372046 -5.93170718 12.96035902 -6 16.375 C-4.26655125 20.10343964 -4.26655125 20.10343964 -1 22.375 C4.01121384 22.86225249 4.01121384 22.86225249 8.375 20.6875 C10.19275513 18.10069463 10.8423583 16.52783392 11 13.375 C10.15922128 11.10642854 10.15922128 11.10642854 9 9.375 C8.34 9.375 7.68 9.375 7 9.375 C7 8.715 7 8.055 7 7.375 C1.60987754 7.01304818 1.60987754 7.01304818 -3.4375 8.5 Z " fill="#BC9547" transform="translate(940,261.625)"/>
<path d="M0 0 C1.43859375 -0.00773437 1.43859375 -0.00773437 2.90625 -0.015625 C5.5 0.25 5.5 0.25 8.5 2.25 C8.83 1.59 9.16 0.93 9.5 0.25 C11.81 0.25 14.12 0.25 16.5 0.25 C16.59932276 4.69736742 16.67168003 9.14413713 16.71972656 13.59228516 C16.73976791 15.10346736 16.76700905 16.61457272 16.80175781 18.12548828 C16.85061109 20.30520643 16.87304224 22.48389431 16.890625 24.6640625 C16.91157227 25.9732666 16.93251953 27.2824707 16.95410156 28.63134766 C16.31733684 33.7056093 14.16780096 36.77841092 10.375 40.125 C6.06237429 41.81254919 2.06720274 41.92229224 -2.5 41.25 C-6.35544798 39.25342873 -8.09805092 37.85292362 -10.5 34.25 C-10.5 32.93 -10.5 31.61 -10.5 30.25 C-7.1875 30.0625 -7.1875 30.0625 -3.5 30.25 C-2.5 31.25 -1.5 32.25 -0.5 33.25 C3.04199641 33.66673207 3.04199641 33.66673207 6.5 33.25 C7.16 32.59 7.82 31.93 8.5 31.25 C8.5 29.93 8.5 28.61 8.5 27.25 C7.51 27.91 6.52 28.57 5.5 29.25 C3.16015625 29.515625 3.16015625 29.515625 0.5625 29.5 C-0.29214844 29.50515625 -1.14679687 29.5103125 -2.02734375 29.515625 C-4.61974567 29.23713633 -6.26514234 28.55669172 -8.5 27.25 C-8.5 26.59 -8.5 25.93 -8.5 25.25 C-9.16 25.25 -9.82 25.25 -10.5 25.25 C-13.58338619 18.38697912 -13.72604458 13.4303511 -11.5 6.25 C-11.17 5.59 -10.84 4.93 -10.5 4.25 C-9.84 4.25 -9.18 4.25 -8.5 4.25 C-8.5 3.59 -8.5 2.93 -8.5 2.25 C-5.14802157 0.01534771 -3.92208754 -0.02108649 0 0 Z M-4 8.8125 C-6.08392818 12.19888329 -6.05802097 14.34385318 -5.5 18.25 C-4.1469872 20.85314994 -4.1469872 20.85314994 -1.5 22.25 C2.01870564 22.87303037 5.25771003 22.97132966 8.4375 21.125 C9.96849826 18.42323836 10.3757742 16.35564495 10.5 13.25 C9.36220128 10.92268444 8.33159286 9.08159286 6.5 7.25 C0.94201968 6.70847933 0.94201968 6.70847933 -4 8.8125 Z " fill="#BC9547" transform="translate(868.5,261.75)"/>
<path d="M0 0 C11.55 0 23.1 0 35 0 C35 2.97 35 5.94 35 9 C30.71 9 26.42 9 22 9 C22 24.18 22 39.36 22 55 C19.03 55 16.06 55 13 55 C13 39.82 13 24.64 13 9 C8.71 9 4.42 9 0 9 C0 6.03 0 3.06 0 0 Z " fill="#BC9547" transform="translate(390,168)"/>
<path d="M0 0 C2.31 0 4.62 0 7 0 C7 0.66 7 1.32 7 2 C7.99 1.34 8.98 0.68 10 0 C14.20884445 -0.5968343 17.85784706 -0.66857733 21.5625 1.5 C22.036875 1.995 22.51125 2.49 23 3 C23.40347656 2.5153125 23.80695312 2.030625 24.22265625 1.53125 C26.42214088 -0.3636906 27.566203 -0.46126412 30.4375 -0.5 C31.19933594 -0.5309375 31.96117187 -0.561875 32.74609375 -0.59375 C35 0 35 0 37.26953125 1.76171875 C39.96332582 6.80270227 39.42063453 11.69796765 39.25 17.3125 C39.23195313 18.43462891 39.21390625 19.55675781 39.1953125 20.71289062 C39.14827856 23.47613447 39.08256317 26.23762698 39 29 C36.69 29 34.38 29 32 29 C31.67 22.07 31.34 15.14 31 8 C30.01 7.67 29.02 7.34 28 7 C25.64226841 8.7164286 24.18767389 10.1066031 23.57617188 13.01757812 C23.38220599 15.43296388 23.29164121 17.82723894 23.25 20.25 C23.20552734 21.51070313 23.20552734 21.51070313 23.16015625 22.796875 C23.08968364 24.8640715 23.04255061 26.93204033 23 29 C20.69 29 18.38 29 16 29 C15.67 21.74 15.34 14.48 15 7 C13.35 7.33 11.7 7.66 10 8 C7.9859044 11.0211434 7.73163404 11.80660017 7.5859375 15.23046875 C7.54726563 16.03291016 7.50859375 16.83535156 7.46875 17.66210938 C7.4378125 18.49548828 7.406875 19.32886719 7.375 20.1875 C7.33632813 21.03248047 7.29765625 21.87746094 7.2578125 22.74804688 C7.16363721 24.83167524 7.08073325 26.91580753 7 29 C4.69 29 2.38 29 0 29 C0 19.43 0 9.86 0 0 Z " fill="#BC9547" transform="translate(737,262)"/>
<path d="M0 0 C2.31 0 4.62 0 7 0 C7.33 0.66 7.66 1.32 8 2 C8.55816406 1.67773438 9.11632812 1.35546875 9.69140625 1.0234375 C13.68575553 -0.74732309 17.71862862 -0.55602226 22 0 C26.35511465 2.40921236 28.33241537 5.34831656 30 10 C30.97505921 16.51624937 29.82371773 20.68928092 26 26 C22.99387232 28.75561704 21.05780954 29.39291391 17 29.3125 C16.154375 29.30863281 15.30875 29.30476563 14.4375 29.30078125 C12 29 12 29 8 27 C7.67 31.62 7.34 36.24 7 41 C4.69 41 2.38 41 0 41 C0 27.47 0 13.94 0 0 Z M8.5625 8.5625 C6.39603972 11.94217804 6.43711998 14.05983987 7 18 C8.41666667 20.58333333 8.41666667 20.58333333 11 22 C14.65973254 22.45746657 17.02604821 22.46134558 20.375 20.875 C22.64943318 18.25065402 22.93096951 16.45152438 23 13 C21.26655125 9.27156036 21.26655125 9.27156036 18 7 C14.16385043 6.64480097 11.85370366 6.45275406 8.5625 8.5625 Z " fill="#BC9547" transform="translate(447,262)"/>
<path d="M0 0 C2.31 0 4.62 0 7 0 C7.33 0.66 7.66 1.32 8 2 C8.99 1.34 9.98 0.68 11 0 C15.88720204 -0.72340684 19.93060797 -0.48608728 24.4375 1.5625 C28.47805675 5.40595642 29.7966326 9.0680097 30.375 14.5625 C29.79044516 19.92091935 27.99764909 22.88068638 24.4375 26.875 C20.94653569 29.60286407 17.56410938 29.48324095 13.26953125 29.37109375 C11 29 11 29 8 27 C7.67 31.62 7.34 36.24 7 41 C4.69 41 2.38 41 0 41 C0 27.47 0 13.94 0 0 Z M7.4375 9.0625 C5.56374495 12.89147772 5.87037299 14.93334276 7 19 C7.91666667 21.08333333 7.91666667 21.08333333 10 22 C13.09344778 22.39281877 15.04575205 22.63008105 18 22 C21.02791041 19.42627616 21.86162709 17.84753406 22.5 13.9375 C22.18663543 10.95835801 22.18663543 10.95835801 20.5 8.625 C17.46640767 6.65316499 15.48068984 6.35447066 11.91015625 6.5546875 C9.72073563 6.91950524 9.72073563 6.91950524 7.4375 9.0625 Z " fill="#BC9547" transform="translate(590,262)"/>
<path d="M0 0 C2.97 0 5.94 0 9 0 C9 15.18 9 30.36 9 46 C14.61 46 20.22 46 26 46 C26 48.97 26 51.94 26 55 C17.42 55 8.84 55 0 55 C0 36.85 0 18.7 0 0 Z " fill="#BC9547" transform="translate(938,168)"/>
<path d="M0 0 C2.3046875 1.53125 2.3046875 1.53125 4 3 C4.33 2.01 4.66 1.02 5 0 C7.31 0 9.62 0 12 0 C12 9.57 12 19.14 12 29 C9.69 29 7.38 29 5 29 C4.67 28.01 4.34 27.02 4 26 C3.15888672 26.72509766 3.15888672 26.72509766 2.30078125 27.46484375 C-1.6087467 30.07340824 -5.47722352 29.82674409 -10 29 C-13.98915352 27.14033977 -16.28521864 24.71547526 -17.9765625 20.65625 C-19.26532567 15.62541544 -19.31907272 11.50266385 -17.09765625 6.76171875 C-12.93705364 0.0840256 -7.42896505 -1.47108219 0 0 Z M-10 10 C-11.20362584 13.69111926 -11.34418291 15.29598951 -9.625 18.8125 C-8.18059279 20.86806083 -8.18059279 20.86806083 -7 22 C-1.44201968 22.54152067 -1.44201968 22.54152067 3.5 20.4375 C5.58392818 17.05111671 5.55802097 14.90614682 5 11 C3.58333333 8.41666667 3.58333333 8.41666667 1 7 C-3.58722309 6.42659711 -6.85840526 6.37508299 -10 10 Z " fill="#BC9547" transform="translate(909,262)"/>
<path d="M0 0 C5.01020773 2.32616787 7.01947624 4.89233347 9 10 C10.23529412 14.52941176 10.23529412 14.52941176 9 17 C-1.395 17.495 -1.395 17.495 -12 18 C-9.24666281 21.40131554 -9.24666281 21.40131554 -5.125 21.3125 C-1.73025484 21.19349602 0.9325858 20.5337071 4 19 C5.32 20.32 6.64 21.64 8 23 C7.67 23.66 7.34 24.32 7 25 C6.34 25 5.68 25 5 25 C5 25.66 5 26.32 5 27 C0.00225433 29.98908234 -5.35696884 29.61189494 -11 29 C-15.45498552 26.8897437 -18.22604963 24.63198151 -20 20 C-20.76596671 14.51057188 -20.95039771 9.64919663 -17.75 4.9375 C-13.13156661 -0.89255943 -6.93461191 -0.80401297 0 0 Z M-12 10 C-7.71 10 -3.42 10 1 10 C0.34 9.67 -0.32 9.34 -1 9 C-1 8.34 -1 7.68 -1 7 C-2.8871875 6.9071875 -2.8871875 6.9071875 -4.8125 6.8125 C-5.52019531 6.77769531 -6.22789062 6.74289062 -6.95703125 6.70703125 C-9.45671716 6.85714552 -9.45671716 6.85714552 -12 10 Z " fill="#BC9547" transform="translate(341,262)"/>
<path d="M0 0 C4.18398725 2.17388661 6.44324199 4.86328574 8.5 9.0625 C9 12 9 12 8 17 C1.07 17 -5.86 17 -13 17 C-10.59155318 21.1270522 -10.59155318 21.1270522 -7.80859375 21.4609375 C-7.02613281 21.43257813 -6.24367188 21.40421875 -5.4375 21.375 C-4.65246094 21.36210937 -3.86742187 21.34921875 -3.05859375 21.3359375 C-0.78056638 21.16989352 -0.78056638 21.16989352 1 19 C3.625 19.375 3.625 19.375 6 20 C6.33 21.32 6.66 22.64 7 24 C1.36024669 28.60085138 -1.66161377 29.47133098 -8.94140625 29.41015625 C-12.96153236 28.87105888 -14.95772297 27.59352333 -17.7265625 24.703125 C-20.58089549 20.88567352 -21.20483306 17.58446712 -20.8125 12.9375 C-19.98048182 7.9737552 -18.20918221 5.11849355 -14.5 1.6875 C-9.58550572 -0.68198831 -5.35707603 -1.02483194 0 0 Z M-12 10 C-8.04 10 -4.08 10 0 10 C-1.58941406 6.859086 -1.58941406 6.859086 -3.875 6.6015625 C-4.57625 6.60929687 -5.2775 6.61703125 -6 6.625 C-7.051875 6.61339844 -7.051875 6.61339844 -8.125 6.6015625 C-10.41058594 6.859086 -10.41058594 6.859086 -12 10 Z " fill="#BC9547" transform="translate(982,262)"/>
<path d="M0 0 C2.31 0 4.62 0 7 0 C7.33 5.61 7.66 11.22 8 17 C8.66 16.34 9.32 15.68 10 15 C13.38289437 14.4401133 16.61612009 14.45333119 20 15 C23.24098978 17.92479565 24.86438205 20.73543605 25.12939453 25.16064453 C25.13052246 25.97645996 25.13165039 26.79227539 25.1328125 27.6328125 C25.13474609 28.96505859 25.13474609 28.96505859 25.13671875 30.32421875 C25.13285156 31.24847656 25.12898437 32.17273438 25.125 33.125 C25.13080078 34.52298828 25.13080078 34.52298828 25.13671875 35.94921875 C25.13542969 36.83480469 25.13414062 37.72039062 25.1328125 38.6328125 C25.13168457 39.44637207 25.13055664 40.25993164 25.12939453 41.09814453 C25 43 25 43 24 44 C21.69 44 19.38 44 17 44 C16.67 37.07 16.34 30.14 16 23 C12.20211302 21.87873219 12.20211302 21.87873219 9 22 C8.09166031 24.72501908 7.81640015 26.62233971 7.68359375 29.44921875 C7.64169922 30.29677734 7.59980469 31.14433594 7.55664062 32.01757812 C7.51732422 32.89865234 7.47800781 33.77972656 7.4375 34.6875 C7.39431641 35.58017578 7.35113281 36.47285156 7.30664062 37.39257812 C7.20064647 39.59490108 7.09857949 41.79733473 7 44 C4.69 44 2.38 44 0 44 C0 29.48 0 14.96 0 0 Z " fill="#BC9547" transform="translate(526,247)"/>
<path d="M0 0 C4.07808158 2.22122313 6.45310606 5.17965909 9 9 C9.70880848 14.25012791 9.62519342 18.70330253 7.3125 23.5 C4.23113909 26.83120098 1.63310286 28.7362418 -2.90234375 29.46875 C-12.11305686 29.5635836 -12.11305686 29.5635836 -15.5625 26.9375 C-19.37662303 22.34099276 -21.33353017 18.45114998 -21 12.4375 C-20.26714093 7.66577318 -18.42211136 5.34063252 -15 2 C-10.31189524 -1.12540317 -5.47935839 -0.8282751 0 0 Z M-11.375 8.75 C-13.47047714 11.612389 -13.47047714 11.612389 -14 15 C-12.6007781 17.79844381 -11.21208617 19.78791383 -9 22 C-5.14493238 22.42834085 -2.87199635 22.55897202 0.4375 20.4375 C2.60396028 17.05782196 2.56288002 14.94016013 2 11 C0.58333333 8.41666667 0.58333333 8.41666667 -2 7 C-6.02059163 6.42562977 -8.06368326 6.3100824 -11.375 8.75 Z " fill="#BC9547" transform="translate(801,262)"/>
<path d="M0 0 C0.9384375 -0.00515625 1.876875 -0.0103125 2.84375 -0.015625 C5.54047676 0.25404768 7.18949293 0.8767741 9.5 2.25 C9.5 2.91 9.5 3.57 9.5 4.25 C10.16 4.25 10.82 4.25 11.5 4.25 C16.1566968 12.95599836 16.1566968 12.95599836 14.921875 17.26953125 C13.91546567 20.00755664 12.80448525 22.6410295 11.5 25.25 C10.84 25.25 10.18 25.25 9.5 25.25 C9.5 25.91 9.5 26.57 9.5 27.25 C4.71995478 30.05519086 -0.10343767 29.90412877 -5.5 29.25 C-8.09746501 28.20111889 -9.39838204 27.1812165 -11.5 25.25 C-11.5 24.59 -11.5 23.93 -11.5 23.25 C-12.16 23.25 -12.82 23.25 -13.5 23.25 C-15.95397487 18.18867683 -16.32225868 13.66538487 -14.5 8.3125 C-14.005 7.2915625 -14.005 7.2915625 -13.5 6.25 C-12.84 6.25 -12.18 6.25 -11.5 6.25 C-11.2525 5.63125 -11.005 5.0125 -10.75 4.375 C-8.25880565 0.1399696 -4.61421633 -0.02535284 0 0 Z M-5.875 8.9375 C-7.69275513 11.52430537 -8.3423583 13.09716608 -8.5 16.25 C-7.35984646 19.57544781 -6.53317287 20.22788475 -3.5 22.25 C-0.04230809 22.83342353 -0.04230809 22.83342353 3.5 22.25 C6.46135546 19.66830549 7.36756104 18.06118865 8 14.1875 C7.69344735 11.19779184 7.69344735 11.19779184 5.9375 8.875 C1.85510489 6.15340326 -1.85438322 6.08074597 -5.875 8.9375 Z " fill="#BC9547" transform="translate(569.5,261.75)"/>
<path d="M0 0 C4.33761673 2.29550851 7.15122083 5.4636437 9 10 C9.72427331 14.63198048 9.44977085 18.11711647 7.3125 22.3125 C6.549375 23.199375 5.78625 24.08625 5 25 C4.34 25.78375 3.68 26.5675 3 27.375 C-1.84759402 30.00078009 -6.62758129 29.95936048 -12 29 C-16.07399474 26.75930289 -18.44860709 23.82708937 -21 20 C-21.75307108 15.45260926 -22.06521723 10.89857329 -19.76171875 6.79296875 C-14.05995917 0.07253252 -8.69633239 -1.3033263 0 0 Z M-14 11 C-14.63734462 14.96569988 -14.61999672 17.03280512 -12.4375 20.4375 C-9.01685857 22.63021887 -6.99048721 22.63007693 -3 22 C0.06965937 19.71408345 1.68875582 18.24497671 2.625 14.5 C1.69783903 10.79135614 0.0099077 9.29014716 -3 7 C-7.94820177 6.07221217 -10.70503051 7.22047618 -14 11 Z " fill="#BC9547" transform="translate(433,262)"/>
<path d="M0 0 C3.90863741 1.95431871 6.98579156 4.07759409 9 8 C10.52109808 14.06080942 10.2740691 18.50801313 7 24 C4.11234827 27.47999055 2.61843567 28.70328679 -1.8125 29.515625 C-7.10597798 29.80676629 -10.96227554 29.67825426 -15.125 26.1875 C-18.65957184 22.62655076 -20.33019735 19.815779 -20.5 14.75 C-20.42420501 9.54770741 -19.22590953 6.99604197 -15.60546875 3.33984375 C-10.61681422 -0.82343728 -6.27270894 -0.73585427 0 0 Z M-13 11 C-13.63734462 14.96569988 -13.61999672 17.03280512 -11.4375 20.4375 C-8.05782196 22.60396028 -5.94016013 22.56288002 -2 22 C0.67387203 20.10014356 1.73158019 18.59999723 3.0625 15.625 C3.21582963 12.72132811 3.21582963 12.72132811 0.9375 9.6875 C-1.72720426 6.79058401 -1.72720426 6.79058401 -5 6.375 C-8.77453301 7.16136104 -10.45937489 8.08575355 -13 11 Z " fill="#BC9547" transform="translate(279,262)"/>
<path d="M0 0 C4.33761673 2.29550851 7.15122083 5.4636437 9 10 C9.72427331 14.63198048 9.44977085 18.11711647 7.3125 22.3125 C6.549375 23.199375 5.78625 24.08625 5 25 C4.34 25.78375 3.68 26.5675 3 27.375 C-1.84759402 30.00078009 -6.62758129 29.95936048 -12 29 C-16.07399474 26.75930289 -18.44860709 23.82708937 -21 20 C-21.75307108 15.45260926 -22.06521723 10.89857329 -19.76171875 6.79296875 C-14.05995917 0.07253252 -8.69633239 -1.3033263 0 0 Z M-12.4375 8.5625 C-14.60396028 11.94217804 -14.56288002 14.05983987 -14 18 C-12.58333333 20.58333333 -12.58333333 20.58333333 -10 22 C-6.54271642 22.75011367 -6.54271642 22.75011367 -3 22 C0.06965937 19.71408345 1.68875582 18.24497671 2.625 14.5 C1.68875582 10.75502329 0.06965937 9.28591655 -3 7 C-6.99048721 6.36992307 -9.01685857 6.36978113 -12.4375 8.5625 Z " fill="#BC9547" transform="translate(684,262)"/>
<path d="M0 0 C7 0 7 0 9 1 C9.66 0.67 10.32 0.34 11 0 C15.34654271 -0.51185155 18.83921764 -0.81254765 22.5 1.75 C24.87635779 5.31453669 25.1269375 8.50844035 25.1328125 12.73046875 C25.13474609 14.05788086 25.13474609 14.05788086 25.13671875 15.41210938 C25.13285156 16.32798828 25.12898438 17.24386719 25.125 18.1875 C25.13080078 19.5787207 25.13080078 19.5787207 25.13671875 20.99804688 C25.13542969 21.87912109 25.13414062 22.76019531 25.1328125 23.66796875 C25.13168457 24.47516357 25.13055664 25.2823584 25.12939453 26.11401367 C25 28 25 28 24 29 C21.69 29 19.38 29 17 29 C17 21.74 17 14.48 17 7 C10.6 7.2 10.6 7.2 9 9 C8.85578846 10.40197402 8.77313876 11.81042831 8.71875 13.21875 C8.68136719 14.06824219 8.64398438 14.91773438 8.60546875 15.79296875 C8.57066406 16.68628906 8.53585937 17.57960938 8.5 18.5 C8.43140557 20.26059038 8.35871048 22.02102741 8.28125 23.78125 C8.23581055 24.9578418 8.23581055 24.9578418 8.18945312 26.15820312 C8 28 8 28 7 29 C4.69 29 2.38 29 0 29 C0 19.43 0 9.86 0 0 Z " fill="#BB9346" transform="translate(292,262)"/>
<path d="M0 0 C9.9 0 19.8 0 30 0 C30 4.95 30 9.9 30 15 C20.1 15 10.2 15 0 15 C0 10.05 0 5.1 0 0 Z " fill="#026325" transform="translate(718,113)"/>
<path d="M0 0 C2 2 2 2 2.125 5.625 C2.08375 6.73875 2.0425 7.8525 2 9 C-0.97 8.505 -0.97 8.505 -4 8 C-4.33 10.64 -4.66 13.28 -5 16 C-2.69 16 -0.38 16 2 16 C2 18.31 2 20.62 2 23 C-0.31 23 -2.62 23 -5 23 C-5 30.26 -5 37.52 -5 45 C-7.31 45 -9.62 45 -12 45 C-12 37.74 -12 30.48 -12 23 C-13.65 23 -15.3 23 -17 23 C-17 20.69 -17 18.38 -17 16 C-15.35 16 -13.7 16 -12 16 C-12.04640625 15.25234375 -12.0928125 14.5046875 -12.140625 13.734375 C-12.43824701 5.61354582 -12.43824701 5.61354582 -10.125 2.375 C-6.52186829 0.04356183 -4.31784533 -0.26986533 0 0 Z " fill="#BC9547" transform="translate(659,246)"/>
<path d="M0 0 C3.67167686 0.04782213 5.70251242 0.28238295 8.3125 2.9375 C8.93125 3.7625 9.55 4.5875 10.1875 5.4375 C8.125 7.5 8.125 7.5 5.1875 9.4375 C1.375 9.1875 1.375 9.1875 -1.8125 8.4375 C-1.11382812 8.83582031 -0.41515625 9.23414063 0.3046875 9.64453125 C1.66980469 10.43923828 1.66980469 10.43923828 3.0625 11.25 C3.96742188 11.77207031 4.87234375 12.29414063 5.8046875 12.83203125 C8.1875 14.4375 8.1875 14.4375 10.1875 17.4375 C10.81634443 21.48007135 10.31735072 23.20376871 8.3125 26.8125 C5.82590149 29.51223553 3.80990871 29.91111576 0.1875 30.0625 C-3.32885786 29.84731989 -4.81177512 29.43792043 -7.9375 27.625 C-9.8125 25.4375 -9.8125 25.4375 -9.8125 22.4375 C-4.76781271 20.22275924 -1.95339313 20.58677847 3.1875 22.4375 C2.6693964 20.4726761 2.6693964 20.4726761 1.1875 18.4375 C-1.12354818 17.38702356 -3.45833651 16.38742562 -5.8125 15.4375 C-8.11888281 13.74615261 -8.69624317 12.75305424 -9.6875 10.0625 C-9.85038731 6.64186655 -8.8041082 5.16674087 -6.8125 2.4375 C-4.34214288 -0.03285712 -3.4164993 0.08707719 0 0 Z " fill="#BC9547" transform="translate(512.8125,261.5625)"/>
<path d="M0 0 C3.0625 1.5 3.0625 1.5 5 3 C3.63016497 6.16115776 3.0109362 6.9927092 0 9 C-3.6875 8.125 -3.6875 8.125 -7 7 C-5.50321499 9.99357002 -2.9714288 10.55176584 -0.0078125 11.90234375 C2.15268099 13.08346957 3.51581561 14.03033474 5 16 C5.29296875 18.26171875 5.29296875 18.26171875 5.1875 20.6875 C5.16042969 21.49574219 5.13335937 22.30398438 5.10546875 23.13671875 C5.07066406 23.75160156 5.03585937 24.36648438 5 25 C4.34 25 3.68 25 3 25 C3 25.66 3 26.32 3 27 C-1.22644734 29.81763156 -5.03530056 29.67441907 -10 29 C-12.625 27.1875 -12.625 27.1875 -14 25 C-14 24.01 -14 23.02 -14 22 C-12.35 21.34 -10.7 20.68 -9 20 C-8.67 20.33 -8.34 20.66 -8 21 C-6.00041636 21.04080783 -3.99954746 21.04254356 -2 21 C-4.07010268 17.89484598 -4.76311542 17.42803731 -8 16 C-11.23688458 14.57196269 -11.92989732 14.10515402 -14 11 C-14.60260235 7.04004171 -14.32121048 5.4766349 -12.0625 2.125 C-7.96830397 -0.71587071 -4.84683012 -0.8414027 0 0 Z " fill="#BC9547" transform="translate(386,262)"/>
<path d="M0 0 C2.3125 1.52734375 2.3125 1.52734375 4 3 C3.67 4.32 3.34 5.64 3 7 C-0.40562852 7.77842938 -3.50765756 8.09978121 -7 8 C-7 8.66 -7 9.32 -7 10 C-6.278125 10.103125 -5.55625 10.20625 -4.8125 10.3125 C-0.96352779 11.25335987 1.89523107 12.59393045 4.375 15.75 C5.32835544 19.18207959 4.91654656 21.57822616 4 25 C1.82281955 27.65343867 0.24444216 28.78132085 -3.15625 29.37890625 C-7.24741106 29.5902829 -9.48141772 29.30691604 -13.0625 27.1875 C-15 25 -15 25 -15 22 C-13.02 21.34 -11.04 20.68 -9 20 C-9 20.66 -9 21.32 -9 22 C-6.69 22 -4.38 22 -2 22 C-2.65758182 18.95176998 -2.65758182 18.95176998 -4.7421875 17.9375 C-5.79792969 17.4734375 -5.79792969 17.4734375 -6.875 17 C-9.80799492 15.70125686 -11.99911095 14.5549814 -14 12 C-14.4761505 7.71464551 -14.69868227 5.2703314 -12.625 1.5 C-8.62221823 -0.78730387 -4.50269401 -0.80095999 0 0 Z " fill="#BC9547" transform="translate(1009,262)"/>
<path d="M0 0 C2.64 0 5.28 0 8 0 C8 2.31 8 4.62 8 7 C9.65 7 11.3 7 13 7 C13 9.31 13 11.62 13 14 C11.35 14 9.7 14 8 14 C8.00523682 14.63091553 8.01047363 15.26183105 8.01586914 15.91186523 C8.03657826 18.75373347 8.04964066 21.59558588 8.0625 24.4375 C8.07087891 25.43072266 8.07925781 26.42394531 8.08789062 27.44726562 C8.09111328 28.39150391 8.09433594 29.33574219 8.09765625 30.30859375 C8.10289307 31.18314209 8.10812988 32.05769043 8.11352539 32.95874023 C8 35 8 35 7 36 C4.69 36 2.38 36 0 36 C0 28.74 0 21.48 0 14 C-1.32 14 -2.64 14 -4 14 C-4 11.69 -4 9.38 -4 7 C-2.68 7 -1.36 7 0 7 C0 4.69 0 2.38 0 0 Z " fill="#BC9447" transform="translate(397,255)"/>
<path d="M0 0 C2.31 0 4.62 0 7 0 C7 2.31 7 4.62 7 7 C8.65 7 10.3 7 12 7 C12 9.31 12 11.62 12 14 C10.35 14 8.7 14 7 14 C7 21.26 7 28.52 7 36 C4.69 36 2.38 36 0 36 C0 28.74 0 21.48 0 14 C-1.65 14 -3.3 14 -5 14 C-5 12.02 -5 10.04 -5 8 C-3.35 7.67 -1.7 7.34 0 7 C0 4.69 0 2.38 0 0 Z " fill="#BC9547" transform="translate(840,255)"/>
<path d="M0 0 C2.31 0 4.62 0 7 0 C7.33 0.66 7.66 1.32 8 2 C8.66 2 9.32 2 10 2 C10 1.34 10 0.68 10 0 C12.64 0 15.28 0 18 0 C17.67 2.31 17.34 4.62 17 7 C15.88625 7.2475 14.7725 7.495 13.625 7.75 C10.07747313 8.59781888 10.07747313 8.59781888 8.8125 10.5625 C7.64237689 14.07286933 7.53045714 17.58380242 7.375 21.25 C7.33632813 21.99507813 7.29765625 22.74015625 7.2578125 23.5078125 C7.16394892 25.3381524 7.08090282 27.16904143 7 29 C4.69 29 2.38 29 0 29 C0 19.43 0 9.86 0 0 Z " fill="#BC9547" transform="translate(815,262)"/>
<path d="M0 0 C2.31 0 4.62 0 7 0 C7.33 0.66 7.66 1.32 8 2 C8.66 1.34 9.32 0.68 10 0 C12.68839385 -0.26991906 15.29141936 -0.08737357 18 0 C17.375 3.375 17.375 3.375 16 7 C13 8.3125 13 8.3125 10 9 C7.64641749 11.35358251 7.72128096 11.92968394 7.5859375 15.1328125 C7.54726563 15.93847656 7.50859375 16.74414062 7.46875 17.57421875 C7.4378125 18.41597656 7.406875 19.25773437 7.375 20.125 C7.33632813 20.97449219 7.29765625 21.82398438 7.2578125 22.69921875 C7.16343506 24.79911684 7.08062414 26.89952891 7 29 C4.69 29 2.38 29 0 29 C0 19.43 0 9.86 0 0 Z " fill="#BC9547" transform="translate(698,262)"/>
<path d="M0 0 C2.89384149 2.2846117 3.87794692 3.97017717 4.3125 7.63671875 C4.49487124 16.17397262 4.49487124 16.17397262 2 20 C-1.6441774 22.4294516 -3.71241272 22.16179575 -8 22 C-8 21.34 -8 20.68 -8 20 C-8.66 20 -9.32 20 -10 20 C-12.80251141 15.2357306 -12.66969694 10.38149328 -12 5 C-8.69507091 -0.50821515 -6.19131002 -1.73356681 0 0 Z M-6 4 C-8.71232939 8.06849409 -8.30699887 10.16476784 -8 15 C-7.34 15.66 -6.68 16.32 -6 17 C-4.68 17 -3.36 17 -2 17 C0.32536063 13.51195905 0.33457898 12.09859246 0 8 C-0.89831016 5.69769234 -0.89831016 5.69769234 -2 4 C-3.32 4 -4.64 4 -6 4 Z " fill="#6D8911" transform="translate(93,249)"/>
<path d="M0 0 C7.875 0 7.875 0 11 1 C11 1.66 11 2.32 11 3 C11.66 3 12.32 3 13 3 C13 5.31 13 7.62 13 10 C11.02 10.99 11.02 10.99 9 12 C9.99 13.6396875 9.99 13.6396875 11 15.3125 C12.58464929 17.93707538 13 18.8256378 13 22 C10.6875 21.8125 10.6875 21.8125 8 21 C6.1875 18.4375 6.1875 18.4375 5 16 C4.67 17.98 4.34 19.96 4 22 C2.68 22 1.36 22 0 22 C0 14.74 0 7.48 0 0 Z M4 4 C4 5.65 4 7.3 4 9 C5.32 9 6.64 9 8 9 C7.67 7.35 7.34 5.7 7 4 C6.01 4 5.02 4 4 4 Z " fill="#6D8911" transform="translate(14,249)"/>
<path d="M0 0 C-0.33 1.65 -0.66 3.3 -1 5 C-1.61488281 4.89300781 -2.22976562 4.78601563 -2.86328125 4.67578125 C-4.07564453 4.49595703 -4.07564453 4.49595703 -5.3125 4.3125 C-6.51326172 4.12107422 -6.51326172 4.12107422 -7.73828125 3.92578125 C-10.05664395 3.79714006 -10.05664395 3.79714006 -11.80859375 5.25390625 C-13.36557073 7.14877556 -13.36557073 7.14877556 -12.75 10.625 C-12.35631915 13.82263935 -12.35631915 13.82263935 -11 15 C-9.14712498 15.07226502 -7.29166122 15.0838122 -5.4375 15.0625 C-4.42558594 15.05347656 -3.41367187 15.04445313 -2.37109375 15.03515625 C-1.58863281 15.02355469 -0.80617188 15.01195312 0 15 C0 16.65 0 18.3 0 20 C-2.32595946 21.16297973 -3.78723231 21.16600691 -6.375 21.1875 C-7.14585938 21.20167969 -7.91671875 21.21585937 -8.7109375 21.23046875 C-11.21834888 20.97801607 -12.83261902 20.25193467 -15 19 C-15 18.34 -15 17.68 -15 17 C-15.66 17 -16.32 17 -17 17 C-19.23463569 12.66217778 -19.17749207 9.70996826 -18 5 C-16.01473281 1.69122135 -14.6087959 0.29116326 -11.125 -1.375 C-7.02291457 -2.19541709 -3.75476053 -1.87738027 0 0 Z " fill="#6D8911" transform="translate(47,250)"/>
<path d="M0 0 C2.19006056 1.56432897 2.90223363 2.76536071 3.9375 5.25 C4.03163023 9.39173006 2.25221208 11.55544035 0 15 C-0.33 15.33 -0.66 15.66 -1 16 C0.32 16.33 1.64 16.66 3 17 C3 18.65 3 20.3 3 22 C-1.95 22 -6.9 22 -12 22 C-10.68025122 16.72100489 -7.86611009 14.801573 -3.93359375 11.21875 C-1.56200011 8.98791716 -1.56200011 8.98791716 -2 5 C-3.32 5 -4.64 5 -6 5 C-6.33 5.66 -6.66 6.32 -7 7 C-8.32 7 -9.64 7 -11 7 C-10.8125 4.6875 -10.8125 4.6875 -10 2 C-6.51918951 -0.9006754 -4.27933971 -1.57659884 0 0 Z " fill="#6D8911" transform="translate(128,249)"/>
<path d="M0 0 C2.9275773 2.13634019 3.86272001 3.29834672 4.5625 6.875 C3.791155 11.16025002 1.97932689 12.87170676 -1 16 C0.65 16.33 2.3 16.66 4 17 C3.67 18.65 3.34 20.3 3 22 C-1.62 22 -6.24 22 -11 22 C-9.97118572 17.88474288 -9.50903532 17.19537534 -6.5625 14.5 C-4.03930599 12.1822435 -2.21644592 10.2438558 -1 7 C-1.33 6.34 -1.66 5.68 -2 5 C-2.99 5 -3.98 5 -5 5 C-5.33 5.66 -5.66 6.32 -6 7 C-7.65 7 -9.3 7 -11 7 C-10.4360709 3.72921124 -9.54319569 2.13628438 -7 0 C-4.23382717 -1.38308641 -2.92591209 -0.90563946 0 0 Z " fill="#6D8911" transform="translate(75,249)"/>
<path d="M0 0 C2.375 1.625 2.375 1.625 4 4 C3.6875 7.6875 3.6875 7.6875 3 11 C3.33 11.33 3.66 11.66 4 12 C4.39152344 15.52371092 4.41041808 17.37616451 2.4375 20.375 C-0.93510779 22.62340519 -3.02512383 22.56783945 -7 22 C-9.4375 20.1875 -9.4375 20.1875 -11 18 C-11 17.01 -11 16.02 -11 15 C-9.35 15 -7.7 15 -6 15 C-5.67 15.66 -5.34 16.32 -5 17 C-4.01 17 -3.02 17 -2 17 C-2 15.68 -2 14.36 -2 13 C-2.99 12.67 -3.98 12.34 -5 12 C-4.625 10.0625 -4.625 10.0625 -4 8 C-3.34 7.67 -2.68 7.34 -2 7 C-2 6.34 -2 5.68 -2 5 C-4.64 5.33 -7.28 5.66 -10 6 C-9.75 3.625 -9.75 3.625 -9 1 C-5.92763131 -1.41400397 -3.60356641 -1.26124824 0 0 Z " fill="#6D8911" transform="translate(162,249)"/>
<path d="M0 0 C1.8125 1.0625 1.8125 1.0625 3 3 C3.06524206 4.95726185 3.11692834 6.91888396 3.0234375 8.875 C2.92350851 11.29002856 2.92350851 11.29002856 3.75 14.75 C4 18 4 18 2.5 20.4375 C-0.89797117 22.56123198 -3.05896237 22.4926297 -7 22 C-9.4375 20.75 -9.4375 20.75 -11 19 C-11 17.68 -11 16.36 -11 15 C-9.35 15 -7.7 15 -6 15 C-5.67 15.66 -5.34 16.32 -5 17 C-4.01 17 -3.02 17 -2 17 C-1.67 15.68 -1.34 14.36 -1 13 C-2.32 12.67 -3.64 12.34 -5 12 C-5 10.68 -5 9.36 -5 8 C-4.01 7.67 -3.02 7.34 -2 7 C-2 6.34 -2 5.68 -2 5 C-3.32 4.67 -4.64 4.34 -6 4 C-6 4.66 -6 5.32 -6 6 C-7.65 6 -9.3 6 -11 6 C-9.55369928 1.42004773 -9.55369928 1.42004773 -7.1875 -0.375 C-4.37518255 -1.17851927 -2.76557013 -0.92185671 0 0 Z " fill="#6D8911" transform="translate(110,249)"/>
<path d="M0 0 C1.99954746 -0.04254356 4.00041636 -0.04080783 6 0 C7 1 7 1 7.11352539 2.94946289 C7.10828857 3.7821167 7.10305176 4.61477051 7.09765625 5.47265625 C7.09443359 6.37177734 7.09121094 7.27089844 7.08789062 8.19726562 C7.07951172 9.14279297 7.07113281 10.08832031 7.0625 11.0625 C7.05798828 12.01189453 7.05347656 12.96128906 7.04882812 13.93945312 C7.0370011 16.29303065 7.02052025 18.64648477 7 21 C5.0625 21.5625 5.0625 21.5625 3 22 C2 21 2 21 1.90234375 17.18359375 C1.90901911 15.60153318 1.92098125 14.01948841 1.9375 12.4375 C1.94201172 11.63119141 1.94652344 10.82488281 1.95117188 9.99414062 C1.96299482 7.99606244 1.98093086 5.99802217 2 4 C1.01 4 0.02 4 -1 4 C-0.67 2.68 -0.34 1.36 0 0 Z " fill="#6D8910" transform="translate(137,249)"/>
<path d="M0 0 C5.28 0 10.56 0 16 0 C16 2.31 16 4.62 16 7 C10.72 7 5.44 7 0 7 C0 4.69 0 2.38 0 0 Z " fill="#BC9547" transform="translate(483,273)"/>
<path d="M0 0 C3.625 0.375 3.625 0.375 7 1 C7.33 3.31 7.66 5.62 8 8 C7.34 8 6.68 8 6 8 C6 8.66 6 9.32 6 10 C0.58860759 10.36075949 0.58860759 10.36075949 -1.9375 8.8125 C-3 7 -3 7 -2.8125 4.4375 C-2 2 -2 2 0 0 Z " fill="#BC9547" transform="translate(247,281)"/>
<path d="M0 0 C2 2 2 2 2.1875 5 C2 8 2 8 1 10 C-2.375 10.125 -2.375 10.125 -6 10 C-8 8 -8 8 -8.3125 5 C-8.209375 4.01 -8.10625 3.02 -8 2 C-4.77626323 -0.14915785 -3.73296326 -0.38286803 0 0 Z " fill="#BC9547" transform="translate(238,281)"/>
<path d="M0 0 C3.625 0.375 3.625 0.375 7 1 C7.625 3.8125 7.625 3.8125 8 7 C7.01 8.485 7.01 8.485 6 10 C3 10.3125 3 10.3125 0 10 C-2 8 -2 8 -2.25 5 C-2 2 -2 2 0 0 Z " fill="#BC9547" transform="translate(218,281)"/>
<path d="M0 0 C1.65 0 3.3 0 5 0 C5 1.65 5 3.3 5 5 C3.0625 5.5625 3.0625 5.5625 1 6 C0 5 0 5 -0.0625 2.4375 C-0.041875 1.633125 -0.02125 0.82875 0 0 Z " fill="#6C8911" transform="translate(48,255)"/>
<path d="M0 0 C1.98 0.495 1.98 0.495 4 1 C3.67 2.65 3.34 4.3 3 6 C1.68 5.67 0.36 5.34 -1 5 C-0.67 3.35 -0.34 1.7 0 0 Z " fill="#6D8911" transform="translate(49,265)"/>
</svg>
